<?xml version="1.0" standalone="no"?><!DOCTYPE svg PUBLIC "-//W3C//DTD SVG 1.1//EN" "http://www.w3.org/Graphics/SVG/1.1/DTD/svg11.dtd"><svg t="1759220890046" class="icon" viewBox="0 0 1024 1024" version="1.1" xmlns="http://www.w3.org/2000/svg" p-id="56935" xmlns:xlink="http://www.w3.org/1999/xlink" width="200" height="200"><path d="M652.8 981.333333c-20.352 0-37.546667-12.544-43.818667-32.896L371.2 236.970667 272.64 526.933333c-6.272 18.773333-25.045333 31.36-43.818667 31.36H89.6c-26.581333 0-46.933333-20.394667-46.933333-47.018666 0-26.666667 20.352-47.018667 46.933333-47.018667h106.368l131.413333-390.186667C333.653333 55.210667 352.426667 42.666667 371.2 42.666667c20.352 0 37.546667 12.544 43.818667 32.896L652.8 787.029333l98.56-289.92c6.272-18.773333 25.045333-31.36 43.818667-31.36H934.4c26.581333 0 46.933333 20.394667 46.933333 47.018667 0 26.666667-20.352 47.018667-46.933333 47.018667h-106.368l-132.992 390.186666c-4.693333 18.816-23.466667 31.36-42.24 31.36z" fill="#2c2c2c" p-id="56936"></path></svg>