<?xml version="1.0" standalone="no"?><!DOCTYPE svg PUBLIC "-//W3C//DTD SVG 1.1//EN" "http://www.w3.org/Graphics/SVG/1.1/DTD/svg11.dtd"><svg t="1759224075603" class="icon" viewBox="0 0 1102 1024" version="1.1" xmlns="http://www.w3.org/2000/svg" p-id="12232" xmlns:xlink="http://www.w3.org/1999/xlink" width="215.234375" height="200"><path d="M1101.181562 253.574095C1101.181562 114.717257 988.038095 1.572571 849.178819 1.572571c-82.285714 0-161.999238 41.142857-208.285257 110.571277-59.142095-12.857295-120.856381-12.857295-179.999695 0C383.752533-3.569371 226.895238-31.853714 111.1808 45.287619-4.533638 122.43139-32.8192 279.288686 44.324571 395.001905c15.429486 23.143619 36.000914 43.715048 59.143315 59.143314-7.714133 35.999695-12.857295 72.00061-12.857296 108.000305 0 254.571276 205.714286 460.285562 460.285562 460.285562 254.571276 0 460.285562-205.714286 460.285562-460.285562 0-35.999695-5.141943-72.00061-12.857295-108.000305 64.286476-46.286019 102.857143-120.856381 102.857143-200.571124zM916.038705 384.7168c-23.143619 10.285105-33.428724 38.570667-25.714591 61.714286 64.285257 185.142857-33.428724 390.857143-218.571581 455.143619-185.142857 64.285257-390.857143-33.429943-455.143619-218.5728-12.856076-38.570667-20.571429-79.713524-20.571428-120.856381 0-38.570667 5.144381-77.142552 18.000457-113.143467 7.714133-23.1424-2.57219-51.427962-25.714591-61.714286-51.427962-25.713371-84.856686-77.142552-84.856685-133.713676 0-82.285714 64.285257-149.143162 146.570971-151.714133 59.143314 0 115.714438 33.428724 138.858057 89.999848 10.285105 23.1424 35.998476 35.999695 61.714286 28.285561 66.856229-20.571429 136.284648-20.571429 203.142095 0 25.71459 7.714133 51.429181-5.143162 61.714286-28.285561 33.428724-74.571581 120.856381-108.000305 195.429181-74.571581 74.571581 33.428724 107.999086 120.856381 74.571581 195.427961-15.429486 30.857752-38.571886 56.572343-69.428419 72.00061z" fill="#2c2c2c" p-id="12233"></path><path d="M561.181257 428.430629c-15.428267 0-25.71459 10.286324-25.71459 25.71459v205.714286c0 15.428267 10.286324 25.71459 25.71459 25.71459s25.71459-10.286324 25.714591-25.71459v-205.714286c0-15.428267-12.857295-25.71459-25.714591-25.71459z" fill="#2c2c2c" p-id="12234"></path></svg>