<?xml version="1.0" standalone="no"?><!DOCTYPE svg PUBLIC "-//W3C//DTD SVG 1.1//EN" "http://www.w3.org/Graphics/SVG/1.1/DTD/svg11.dtd"><svg t="1759222321466" class="icon" viewBox="0 0 1024 1024" version="1.1" xmlns="http://www.w3.org/2000/svg" p-id="116861" xmlns:xlink="http://www.w3.org/1999/xlink" width="200" height="200"><path d="M621.714286 475.428571q0-14.857143-10.857143-25.714286t-25.714286-10.857143l-146.285714 0q-14.857143 0-25.714286 10.857143t-10.857143 25.714286 10.857143 25.714286 25.714286 10.857143l146.285714 0q14.857143 0 25.714286-10.857143t10.857143-25.714286zm329.142857-109.714286l0 548.571429q0 14.857143-10.857143 25.714286t-25.714286 10.857143l-804.571429 0q-14.857143 0-25.714286-10.857143t-10.857143-25.714286l0-548.571429q0-14.857143 10.857143-25.714286t25.714286-10.857143l804.571429 0q14.857143 0 25.714286 10.857143t10.857143 25.714286zm36.571429-256l0 146.285714q0 14.857143-10.857143 25.714286t-25.714286 10.857143l-877.714286 0q-14.857143 0-25.714286-10.857143t-10.857143-25.714286l0-146.285714q0-14.857143 10.857143-25.714286t25.714286-10.857143l877.714286 0q14.857143 0 25.714286 10.857143t10.857143 25.714286z" p-id="116862" fill="#2c2c2c"></path></svg>