<?xml version="1.0" standalone="no"?><!DOCTYPE svg PUBLIC "-//W3C//DTD SVG 1.1//EN" "http://www.w3.org/Graphics/SVG/1.1/DTD/svg11.dtd"><svg t="1759221094474" class="icon" viewBox="0 0 1024 1024" version="1.1" xmlns="http://www.w3.org/2000/svg" p-id="62388" xmlns:xlink="http://www.w3.org/1999/xlink" width="200" height="200"><path d="M475.484929 10.998732c21.997464-14.598317 50.794144-14.598317 72.791607 0L583.872432 34.396034c11.998617 7.799101 25.997003 11.598663 40.195366 10.798755l42.595089-2.5997c26.396957-1.599816 51.194098 12.798524 62.992738 36.395804l19.197786 38.195596c6.399262 12.798524 16.798063 22.997349 29.396611 29.396611l38.59555 19.397764c23.597279 11.79864 37.995619 36.595781 36.395804 62.992737l-2.5997 42.595089c-0.799908 14.198363 2.999654 28.396726 10.798755 40.195366l23.597279 35.595896c14.598317 21.997464 14.598317 50.794144 0 72.791607L861.440431 455.947432c-7.799101 11.998617-11.598663 25.997003-10.798755 40.195366l2.5997 42.595089c1.599816 26.396957-12.798524 51.194098-36.395804 62.992738l-38.195596 19.197786c-12.798524 6.399262-22.997349 16.798063-29.396611 29.396611l-19.397763 38.59555c-11.79864 23.597279-36.595781 37.995619-62.992738 36.395804l-42.595089-2.5997c-14.198363-0.799908-28.396726 2.999654-40.195366 10.798755l-35.595896 23.597279c-21.997464 14.598317-50.794144 14.598317-72.791607 0L439.889033 733.515431c-11.998617-7.799101-25.997003-11.598663-40.195366-10.798755l-42.595089 2.5997c-26.396957 1.599816-51.194098-12.798524-62.992737-36.395804l-19.197787-38.195596c-6.399262-12.798524-16.798063-22.997349-29.396611-29.396611L206.915893 601.930602c-23.597279-11.79864-37.995619-36.595781-36.395804-62.992738l2.5997-42.595089c0.799908-14.198363-2.999654-28.396726-10.798755-40.195366L138.923732 420.351536c-14.598317-21.997464-14.598317-50.794144 0-72.791607L162.321034 311.964033c7.799101-11.998617 11.598663-25.997003 10.798755-40.195366l-2.5997-42.595089c-1.599816-26.396957 12.798524-51.194098 36.395804-62.992737l38.195596-19.197787C257.910014 140.383815 268.308815 129.985014 274.708077 117.186489L293.905864 78.990893c11.79864-23.597279 36.595781-37.995619 62.992737-36.395804l42.595089 2.5997c14.198363 0.799908 28.396726-2.999654 40.195366-10.798755l35.795873-23.397302zM671.862288 383.955733a159.981555 159.981555 0 1 0-319.963111 0 159.981555 159.981555 0 1 0 319.963111 0zM130.5247 883.498139l86.190063-204.976368c0.399954 0.199977 0.599931 0.399954 0.799908 0.799908l19.197787 38.195596c23.397302 46.394651 71.9917 74.5914 123.985705 71.591746l42.595089-2.5997c0.399954 0 0.999885 0 1.399839 0.399954l35.595896 23.597279c10.198824 6.599239 20.997579 11.79864 32.196288 15.398225l-75.191331 178.579411c-4.59947 10.998732-14.798294 18.397879-26.596934 19.397764s-23.197326-4.399493-29.596588-14.39834l-64.392576-98.588634-112.187065 16.598087c-11.398686 1.599816-22.797372-2.999654-29.996542-11.998617s-8.599009-21.397533-4.199516-31.996311z m495.942822 120.786074L551.276191 825.904779c11.198709-3.599585 21.997464-8.599009 32.196288-15.398225l35.595896-23.597279c0.399954-0.199977 0.799908-0.399954 1.399838-0.399954l42.595089 2.5997c51.994005 2.999654 100.588403-25.197095 123.985706-71.591746l19.197786-38.195596c0.199977-0.399954 0.399954-0.599931 0.799908-0.799908l86.39004 204.976368c4.399493 10.598778 2.799677 22.797372-4.199516 31.996311s-18.597856 13.798409-29.996542 11.998617l-112.187065-16.598087-64.392576 98.388657c-6.399262 9.998847-17.797948 15.398225-29.596588 14.39834s-21.997464-8.599009-26.596933-19.397764z" p-id="62389" fill="#2c2c2c"></path></svg>