<?xml version="1.0" standalone="no"?><!DOCTYPE svg PUBLIC "-//W3C//DTD SVG 1.1//EN" "http://www.w3.org/Graphics/SVG/1.1/DTD/svg11.dtd"><svg t="1759221531505" class="icon" viewBox="0 0 1027 1024" version="1.1" xmlns="http://www.w3.org/2000/svg" p-id="74706" xmlns:xlink="http://www.w3.org/1999/xlink" width="200.5859375" height="200"><path d="M962.56 238.933333H955.733333V153.6c0-10.24-6.826667-17.066667-17.066666-17.066667h-102.4c-10.24 0-17.066667 6.826667-17.066667 17.066667V238.933333h-17.066667c-3.413333 0-10.24 3.413333-13.653333 3.413334l-27.306667 30.72H682.666667V228.693333c0-34.133333-27.306667-58.026667-61.44-58.026666h-221.866667c-34.133333 0-61.44 27.306667-61.44 58.026666V273.066667H262.826667l-27.306667-30.72c-3.413333 0-10.24-3.413333-13.653333-3.413334H204.8V153.6c0-10.24-6.826667-17.066667-17.066667-17.066667h-102.4c-10.24 0-17.066667 6.826667-17.066666 17.066667V238.933333h-6.826667C27.306667 238.933333 0 266.24 0 296.96v529.066667c0 34.133333 27.306667 58.026667 61.44 58.026666h904.533333c34.133333 0 61.44-27.306667 61.44-58.026666V296.96C1024 266.24 996.693333 238.933333 962.56 238.933333zM324.266667 580.266667H238.933333v85.333333c0 10.24-6.826667 17.066667-17.066666 17.066667s-17.066667-6.826667-17.066667-17.066667V580.266667H119.466667c-10.24 0-17.066667-6.826667-17.066667-17.066667s6.826667-17.066667 17.066667-17.066667H204.8v-85.333333c0-10.24 6.826667-17.066667 17.066667-17.066667s17.066667 6.826667 17.066666 17.066667V546.133333h85.333334c10.24 0 17.066667 6.826667 17.066666 17.066667s-6.826667 17.066667-17.066666 17.066667z m546.133333 0h-170.666667c-10.24 0-17.066667-6.826667-17.066666-17.066667s6.826667-17.066667 17.066666-17.066667h170.666667c10.24 0 17.066667 6.826667 17.066667 17.066667s-6.826667 17.066667-17.066667 17.066667z" fill="#2c2c2c" p-id="74707"></path></svg>