<?xml version="1.0" standalone="no"?><!DOCTYPE svg PUBLIC "-//W3C//DTD SVG 1.1//EN" "http://www.w3.org/Graphics/SVG/1.1/DTD/svg11.dtd"><svg t="1759217761802" class="icon" viewBox="0 0 1024 1024" version="1.1" xmlns="http://www.w3.org/2000/svg" p-id="18425" xmlns:xlink="http://www.w3.org/1999/xlink" width="200" height="200"><path d="M935.594667 495.232c-8.618667-20.821333-27.093333-25.813333-39.594667-27.008V341.333333c0-47.061333-38.272-85.333333-85.333333-85.333333h-256V196.693333c13.013333-11.690667 21.333333-28.501333 21.333333-47.36a64 64 0 0 0-128 0c0 18.858667 8.32 35.669333 21.333333 47.36V256H213.333333c-47.061333 0-85.333333 38.272-85.333333 85.333333v127.872l-3.498667 0.256A42.666667 42.666667 0 0 0 84.906667 512v85.333333a42.666667 42.666667 0 0 0 42.666666 42.666667H128v213.333333c0 47.061333 38.272 85.333333 85.333333 85.333334h597.333334c47.061333 0 85.333333-38.272 85.333333-85.333334v-213.333333a42.666667 42.666667 0 0 0 42.666667-42.666667v-82.688a42.922667 42.922667 0 0 0-3.072-19.413333zM213.333333 853.333333V341.333333h597.333334l0.042666 170.496L810.666667 512v85.333333l0.042666 0.213334 0.042667 255.786666H213.333333z" p-id="18426"></path><path d="M298.666667 512a85.333333 64 90 1 0 128 0 85.333333 64 90 1 0-128 0Z" p-id="18427"></path><path d="M597.333333 512a85.333333 64 90 1 0 128 0 85.333333 64 90 1 0-128 0Z" p-id="18428"></path><path d="M341.333333 682.666667h341.333334v85.333333H341.333333z" p-id="18429"></path></svg>