<svg t="1759217100850" class="icon" viewBox="0 0 1024 1024" version="1.1" xmlns="http://www.w3.org/2000/svg" p-id="10930" width="200" height="200"><path d="M563.642 54c134.972 0 241.847 53.278 314.735 145.727C938.261 275.682 971 374.72 971 463.002c0 80.638-33.794 164.148-92.82 232.385-55.387 64.03-129.42 110.766-212.341 132.01l-1.752 0.443 0.047 0.135c1.057 3.041 2.535 6.529 4.47 10.424l0.278 0.559c0.4 0.795 0.815 1.6 1.246 2.416l0.657 1.231 0.68 1.247 0.705 1.263 0.727 1.278 0.75 1.294 0.774 1.31 0.797 1.324c0.404 0.666 0.817 1.338 1.239 2.016l0.854 1.363 0.437 0.688 0.89 1.386c0.15 0.232 0.3 0.465 0.453 0.699l0.924 1.409 0.471 0.71 0.96 1.432 0.982 1.447 1.006 1.463 1.028 1.477 0.523 0.744 1.064 1.5 1.086 1.515 0.552 0.763 1.122 1.537c0.188 0.258 0.378 0.516 0.569 0.775l1.156 1.56 1.18 1.574 1.201 1.59 1.226 1.604 0.62 0.807 1.26 1.627 1.284 1.64 1.306 1.656 1.33 1.67 1.351 1.686 1.376 1.7 1.398 1.713 1.421 1.729 1.445 1.743 1.467 1.757 1.49 1.772 1.514 1.786 1.537 1.8 1.56 1.815 1.582 1.829 1.605 1.843 1.629 1.857 1.651 1.871 1.675 1.886 1.697 1.9 1.72 1.913 1.744 1.927c11.873 13.09 10.887 33.328-2.203 45.202-13.09 11.874-33.327 10.888-45.2-2.202l-1.957-2.163-0.969-1.077-1.92-2.143-1.896-2.13-1.873-2.117-1.848-2.105-1.825-2.09-0.903-1.042-1.79-2.071-0.885-1.032-1.753-2.052-0.868-1.022-1.718-2.033-1.694-2.02-1.67-2.009-1.646-1.995a630.768 630.768 0 0 1-1.622-1.983l-1.6-1.97-1.574-1.958-1.551-1.945c-0.257-0.323-0.513-0.645-0.767-0.967l-1.516-1.927-1.492-1.914-0.737-0.952-1.456-1.895-0.72-0.943-1.42-1.877-0.701-0.934-1.385-1.858a448.77 448.77 0 0 1-0.684-0.925l-1.35-1.84-1.326-1.828-0.654-0.909-1.29-1.81-0.636-0.9-1.255-1.791-1.232-1.78-0.606-0.885-1.196-1.761c-0.395-0.586-0.785-1.169-1.172-1.75l-1.149-1.737a297.32 297.32 0 0 1-5.387-8.511l-1.007-1.667a240.858 240.858 0 0 1-4.68-8.16l-0.866-1.597a201.35 201.35 0 0 1-2.454-4.724c-7.376-14.674-11.882-28.305-13.206-41.257-1.616-15.802 1.567-30.591 10.12-43.047a32 32 0 0 1 19.891-13.221l0.496-0.099c78.504-14.963 149.162-56.891 200.775-116.56C879.124 596.468 907 527.583 907 463.002c0-74.22-28.11-159.254-78.881-223.65C767.212 162.097 678.75 118 563.642 118c-164.53 0-255.431 68.903-282.057 211.85l-0.787 4.355a32 32 0 0 1-17.025 23.002l-10.231 5.21-9.895 5.062-9.558 4.914-7.925 4.094-6.415 3.329-7.471 3.895-7.223 3.786-8.113 4.279-6.686 3.55-5.381 2.874-4.181 2.245-6.065 3.277-5.816 3.167-5.566 3.057-3.573 1.978-4.31 2.403-4.138 2.327-2.712 1.537-2.167 1.236-2.11 1.21-2.054 1.186-1.398 0.811 0.889 0.54c16.882 10.298 29.43 20.432 38.77 33.27l0.488 0.678c14.126 19.802 17.708 43.304 8.246 67.304l-0.5 1.26-0.513 1.273-0.525 1.286-0.813 1.96-0.56 1.33-0.868 2.032-0.904 2.083-0.624 1.42-0.969 2.18-0.67 1.49-1.04 2.292-1.087 2.369-1.523 3.285-1.615 3.443-3.91 8.208-10.901 22.783-1.424 3.016-1.373 2.93-1.324 2.849-1.278 2.772-1.233 2.702-1.191 2.636-1.15 2.575-0.746 1.685-1.088 2.485-0.706 1.63-1.03 2.41-0.67 1.584-0.655 1.569-0.96 2.327-0.625 1.536-0.613 1.526-0.9 2.272c-14.938 38.06-17.052 62.824-7.921 75.561 4.274 5.963 10.998 10.387 21.86 13.995l0.95 0.31 1.031 0.326 1.039 0.319 0.697 0.207 1.41 0.406 1.436 0.394 0.73 0.193 1.485 0.379 1.525 0.37 1.174 0.272 1.202 0.268 1.651 0.354 1.278 0.261 1.314 0.26 1.813 0.345 0.934 0.171 1.438 0.257 1.99 0.343 2.077 0.344 2.172 0.347 2.854 0.44 2.403 0.356 3.163 0.456 3.35 0.468 4.282 0.583 15.368 2.03 6.947 0.946 2.875 0.409 3.252 0.482 2.07 0.318 2.943 0.467 0.775 0.125c1.205 0.195 2.4 0.393 3.586 0.595l2.36 0.409c37.15 6.544 64.846 16.76 89.26 36.138 47.65 37.822 82.598 94.142 105.274 168.09 5.18 16.897-4.316 34.795-21.213 39.976-16.897 5.181-34.794-4.316-39.975-21.213-19.117-62.344-47.218-107.628-83.875-136.725-5.944-4.718-12.55-8.649-20.162-11.98l-1.243-0.534c-4.383-1.854-9.095-3.518-14.2-5.026l-1.47-0.426c-1.233-0.352-2.489-0.696-3.768-1.03l-1.547-0.399-0.782-0.196-1.58-0.387-1.605-0.38c-0.539-0.125-1.081-0.249-1.628-0.372l-1.652-0.365-0.835-0.18-1.689-0.354-0.853-0.175-1.726-0.345-0.872-0.17-1.764-0.336-0.892-0.165-1.803-0.326-0.91-0.161-1.843-0.318-1.869-0.312-2.576-0.416-2.34-0.367-3.778-0.566-4.622-0.652-7.207-0.97-12.57-1.658-5.79-0.787-3.882-0.545-2.964-0.43-2.847-0.424-2.735-0.421-1.984-0.316-1.93-0.315-1.876-0.316-2.428-0.424-1.768-0.32-1.726-0.325-1.689-0.327-1.105-0.222-1.63-0.336-1.071-0.227-1.582-0.346-1.557-0.354-1.026-0.24-1.522-0.367-1.505-0.376-0.995-0.256-1.484-0.393-0.984-0.268-0.982-0.273-0.979-0.278-0.978-0.284a195.993 195.993 0 0 1-5.401-1.67c-23.267-7.557-41.573-19.445-54.715-37.777-14.137-19.722-19.178-43.372-16.922-69.796 1.702-19.931 7.443-41.14 16.796-65.189l0.834-2.127 0.7-1.765 0.712-1.769 0.722-1.776 0.734-1.784 0.746-1.795 0.76-1.807 0.773-1.82 1.187-2.763 0.81-1.864 0.828-1.884 1.273-2.87 1.314-2.925 1.356-2.987 0.93-2.03 1.434-3.106 0.983-2.113 1.518-3.241 2.234-4.725 13.358-27.924 1.057-2.24 1.028-2.191 0.981-2.11 0.938-2.033 1.47-3.225 0.827-1.844 0.79-1.78 0.996-2.28 0.707-1.647 0.674-1.595 0.642-1.548 0.612-1.504 0.583-1.464 0.11-0.28 0.194-0.523c0.838-2.338 0.665-3.284-0.782-5.39l-0.33-0.47c-1.188-1.666-2.824-3.442-4.915-5.33l-0.676-0.599a66.45 66.45 0 0 0-2.21-1.843l-0.797-0.63-0.828-0.636c-0.14-0.107-0.283-0.214-0.426-0.321l-0.874-0.648-0.449-0.327-0.92-0.66-0.473-0.331-0.967-0.67a127.1 127.1 0 0 0-0.495-0.339l-1.013-0.681-1.045-0.69-1.076-0.696-1.107-0.704-1.138-0.712-0.581-0.358-1.316-0.801-1.408-0.827-3.466-1.987-13.037-7.409-3.653-2.094-2.605-1.508-1.99-1.166-1.442-0.86-1.209-0.736-0.775-0.488c-7.041-4.535-12.216-8.767-16.549-14.719-9.48-13.02-10.507-30.575 0.441-44.547a43.187 43.187 0 0 1 1.795-2.139l0.562-0.618c0.477-0.516 0.978-1.036 1.502-1.56l0.642-0.632 0.664-0.635 0.341-0.32 0.7-0.643 0.725-0.648 0.749-0.654c0.126-0.11 0.254-0.22 0.383-0.33l0.786-0.662 0.403-0.334 0.823-0.672 0.422-0.338 0.862-0.683 0.44-0.343 0.902-0.693 0.928-0.7 0.955-0.709 0.488-0.357 0.995-0.72c0.168-0.122 0.338-0.243 0.508-0.364l1.037-0.734 1.065-0.742 1.093-0.752 1.694-1.145 1.165-0.776 1.195-0.786 1.224-0.797 1.892-1.216 1.3-0.824 1.33-0.836 2.054-1.276 1.408-0.866 2.172-1.323 2.244-1.352 0.765-0.457 2.342-1.393 1.603-0.945 2.467-1.446 1.688-0.981 3.477-2.01 3.617-2.07 3.553-2.02 3.815-2.15 4.76-2.661 4.958-2.747 6.035-3.315 4.477-2.44 3.68-1.994 4.726-2.548 5.853-3.137 6.052-3.224 5.195-2.753 6.417-3.383 5.5-2.886 7.932-4.142 8.204-4.26 9.708-5.015 8.787-4.515 5.938-3.04 1.09-5.016c36.22-162.227 150.927-246.48 335.86-248.218l5.864-0.027zM483.87 225.183c38.056-7.382 58.067-2.702 76.157 15.216l1.356 1.34 0.458 0.442 0.143 0.031 0.407 0.077c0.781 0.137 1.727 0.246 2.847 0.319l0.773 0.043c0.8 0.037 1.677 0.058 2.636 0.058l1.258 0.002c25.6 0.12 51.743 3.899 72.393 10.824 12.602 4.226 23.345 9.628 31.898 16.644 9.48 7.778 16.251 17.563 18.88 28.973l0.085 0.382 0.366 0.098c6.995 1.84 16.548 2.699 26.296 2.746l0.86 0.002c9.238 0 17.35 3.074 24.795 8.032 5.157 3.434 10.021 7.852 14.655 13.097 8.378 9.48 16.203 21.93 22.684 36.091 14.886 32.526 21.772 71.263 17.379 110.578-3.93 35.175-20.612 61.472-49.699 74.095-19.008 8.25-41.567 9.866-67.853 5.693-1.51 8.679-6.579 16.7-14.653 21.71l-0.685 0.427-1.372 0.862-1.373 0.873a305.1 305.1 0 0 0-0.687 0.441l-1.373 0.89-1.373 0.898-1.372 0.909-1.37 0.917-1.366 0.925-1.363 0.932-1.358 0.939-1.352 0.945-1.346 0.95-1.34 0.955-1.33 0.96-1.323 0.962-0.658 0.483-1.307 0.967-1.297 0.969-1.924 1.455-1.267 0.97-1.253 0.971-1.238 0.97-1.223 0.968-1.208 0.966-1.19 0.963-0.588 0.48-1.164 0.958-1.145 0.953-1.124 0.948-0.555 0.472-1.094 0.939-1.072 0.933-1.05 0.925-0.515 0.46-1.014 0.913-0.498 0.454-0.977 0.9-0.479 0.446-0.937 0.884c-0.308 0.294-0.612 0.585-0.911 0.874l-0.883 0.863-0.43 0.427-0.84 0.844c-0.275 0.28-0.545 0.557-0.81 0.832l-0.778 0.817c-0.51 0.54-0.997 1.072-1.463 1.593l-0.682 0.773-0.647 0.757a48.41 48.41 0 0 0-1.988 2.512l-2.242 3.098-3.053 4.164-5.059 6.83-6.027 8.084-19.914 26.617-2.254 3.063-1.005 1.405-1.333 1.887-0.856 1.225-0.83 1.201-0.803 1.176-0.777 1.151-0.752 1.129-0.727 1.105-0.703 1.082-0.678 1.06-0.653 1.04-0.63 1.018a146.8 146.8 0 0 0-0.307 0.5l-0.594 0.988-0.29 0.487-0.56 0.958-0.271 0.472-0.527 0.93-0.255 0.458-0.494 0.904-0.472 0.885-0.451 0.87-0.43 0.852-0.207 0.42-0.4 0.83c-0.194 0.411-0.38 0.817-0.56 1.217l-0.35 0.793-0.33 0.78c-0.106 0.257-0.21 0.513-0.31 0.766l-0.292 0.754c-0.094 0.249-0.185 0.496-0.274 0.742l-0.255 0.73-0.121 0.36-0.229 0.715-0.108 0.353a34.41 34.41 0 0 0-0.655 2.507l-0.126 0.604c-3.448 17.334-20.295 28.59-37.628 25.143-17.334-3.448-28.59-20.294-25.143-37.628a97.49 97.49 0 0 1 2.26-9.045c3.092-10.29 7.668-20.072 14.278-30.94l0.958-1.561 0.986-1.576a249.777 249.777 0 0 1 2.058-3.204l1.072-1.63 1.102-1.649c0.372-0.553 0.749-1.11 1.131-1.67l1.162-1.693 1.192-1.716 1.223-1.74 1.254-1.764 0.935-1.302 1.657-2.258 5.99-8.041 13.785-18.412 6.564-8.794 0.627-0.844c-15.857-6.234-28.454-18.121-36.258-35.356-7.547-16.668-10.147-37.337-8.489-62.457l0.062-0.921-0.819-0.165c-43.09-8.846-76.076-23.758-98.814-45.69l-0.848-0.827c-16.69-16.41-26.316-38.241-29.151-64.191-2.54-23.241 0.305-49.972 8.163-80.457 0.104-0.403 0.216-0.803 0.335-1.202 12.15-40.526 46.663-65.583 97.991-75.537z m29.934 60.648h-0.34l-0.722 0.012-0.778 0.026-0.836 0.042-0.432 0.026-0.893 0.064c-0.152 0.012-0.306 0.024-0.46 0.038l-0.95 0.086c-0.485 0.048-0.984 0.1-1.498 0.16l-1.046 0.126-1.085 0.142-1.125 0.158-0.577 0.085-1.184 0.183-1.223 0.2-1.263 0.216-0.647 0.115-1.324 0.242-1.364 0.26-0.877 0.172c-28.813 5.734-43.028 15.855-47.719 30.033l-0.12 0.372-0.16 0.628c-10.873 42.924-8.056 69.17 3.857 81.352l0.367 0.368c16.341 16.07 47.972 28.004 95.18 33.938 18.126 2.278 30.67 19.245 27.534 37.243l-0.15 0.87-0.291 1.723-0.278 1.701-0.264 1.679c-0.043 0.277-0.086 0.554-0.127 0.83l-0.245 1.645-0.232 1.622-0.219 1.6-0.206 1.576-0.194 1.553-0.18 1.531-0.17 1.508-0.156 1.485-0.143 1.462-0.132 1.439-0.12 1.415-0.107 1.393-0.096 1.369-0.083 1.346-0.038 0.664-0.066 1.31-0.055 1.287-0.043 1.264-0.031 1.24-0.02 1.216-0.007 0.599-0.003 1.18 0.008 1.157 0.007 0.57 0.025 1.12c0.004 0.185 0.01 0.369 0.016 0.551l0.04 1.085 0.024 0.534 0.057 1.048c0.01 0.173 0.02 0.345 0.032 0.515l0.072 1.013 0.083 0.988c0.044 0.488 0.091 0.966 0.143 1.436l0.108 0.927 0.058 0.455 0.124 0.89c0.557 3.805 1.396 6.918 2.482 9.317 0.49 1.08 0.91 1.73 1.23 2.078l0.07 0.074c0.017 0.013 0.033 0.02 0.065 0.037l0.09 0.043c0.355 0.158 0.954 0.326 1.898 0.46 1.688 0.238 3.9 0.257 6.638-0.026 15.883-1.636 27.52-5.406 35.216-10.728 6.323-4.373 10.269-9.995 12.498-18.04l0.145-0.51c4.94-16.763 22.463-26.497 39.35-21.751l1.563 0.434 1.544 0.417 1.524 0.401 0.755 0.195 1.495 0.377 0.74 0.183 1.466 0.353c0.242 0.058 0.484 0.115 0.725 0.17l1.437 0.33 1.417 0.315 1.398 0.298 1.379 0.283 0.682 0.136 1.349 0.26c0.223 0.042 0.445 0.084 0.667 0.124l1.32 0.238 1.3 0.222 1.28 0.208 1.262 0.192 0.623 0.09 1.232 0.171c0.61 0.082 1.214 0.158 1.81 0.229l1.183 0.134 0.584 0.062 1.153 0.113 1.133 0.098c0.374 0.03 0.745 0.059 1.113 0.085l1.094 0.07 0.54 0.03 1.063 0.05c0.878 0.036 1.736 0.057 2.573 0.064l0.994 0.002c0.164 0 0.328-0.002 0.49-0.004l0.964-0.018a56.093 56.093 0 0 0 5.368-0.382l0.824-0.109 0.405-0.059 0.794-0.127c2.614-0.446 4.893-1.098 6.833-1.94 6.282-2.726 10.024-8.625 11.574-22.492 3.06-27.392-1.766-54.541-11.97-76.838-3.768-8.233-7.992-15.075-11.798-19.593l-0.336-0.393-0.803-0.027c-11.501-0.424-22.71-1.728-33.271-4.392l-1.171-0.302c-10.754-2.829-20.135-6.964-28.057-13.273-9.533-7.593-16.053-17.837-18.162-29.799l-0.086-0.499-0.226-0.12c-2.04-1.079-4.837-2.28-8.269-3.454l-0.495-0.168c-13.957-4.68-33.837-7.504-53.301-7.504l-0.755-0.003c-23.79-0.131-38.371-6.527-51.684-19.63l-1.231-1.219-0.236-0.01a36.262 36.262 0 0 0-1.277-0.017z" p-id="10931"></path></svg>