<?xml version="1.0" standalone="no"?><!DOCTYPE svg PUBLIC "-//W3C//DTD SVG 1.1//EN" "http://www.w3.org/Graphics/SVG/1.1/DTD/svg11.dtd"><svg t="1759218261772" class="icon" viewBox="0 0 1024 1024" version="1.1" xmlns="http://www.w3.org/2000/svg" p-id="24734" xmlns:xlink="http://www.w3.org/1999/xlink" width="200" height="200"><path d="M365.714286 146.285714l292.571429 0 0-73.142857-292.571429 0 0 73.142857zM1024 512l0 274.285714q0 37.741714-26.843429 64.585143t-64.585143 26.843429l-841.142857 0q-37.741714 0-64.585143-26.843429t-26.843429-64.585143l0-274.285714 384 0 0 91.428571q0 14.848 10.825143 25.746286t25.746286 10.825143l182.857143 0q14.848 0 25.746286-10.825143t10.825143-25.746286l0-91.428571 384 0zM585.142857 512l0 73.142857-146.285714 0 0-73.142857 146.285714 0zM1024 237.714286l0 219.428571-1024 0 0-219.428571q0-37.741714 26.843429-64.585143t64.585143-26.843429l201.142857 0 0-91.428571q0-22.820571 16.018286-38.838857t38.838857-16.018286l329.142857 0q22.820571 0 38.838857 16.018286t16.018286 38.838857l0 91.428571 201.142857 0q37.741714 0 64.585143 26.843429t26.843429 64.585143z" fill="#2c2c2c" p-id="24735"></path></svg>