<?xml version="1.0" standalone="no"?><!DOCTYPE svg PUBLIC "-//W3C//DTD SVG 1.1//EN" "http://www.w3.org/Graphics/SVG/1.1/DTD/svg11.dtd"><svg t="1759222169576" class="icon" viewBox="0 0 1024 1024" version="1.1" xmlns="http://www.w3.org/2000/svg" p-id="107371" xmlns:xlink="http://www.w3.org/1999/xlink" width="200" height="200"><path d="M880.014222 112.014222H144.014222c-17.720889 0-32 14.279111-32 31.971556v736c0 17.720889 14.279111 32 31.971556 32h736c17.720889 0 32-14.279111 32-31.971556V144.014222c0-17.720889-14.279111-32-31.971556-32zM440.206222 765.013333H389.404444a7.68 7.68 0 0 1-5.916444-2.901333l-35.498667-43.52-35.498666 43.52a7.395556 7.395556 0 0 1-5.888 2.901333H255.800889c-6.599111 0-10.211556-7.907556-5.802667-13.112889l62.691556-76.8-61.184-74.894222c-4.295111-5.205333-0.711111-13.084444 5.888-13.084444h50.915555a7.68 7.68 0 0 1 5.888 2.872889l33.991111 41.614222 34.019556-41.614222a7.395556 7.395556 0 0 1 5.888-2.901334h50.801778c6.599111 0 10.211556 7.907556 5.888 13.084445l-61.297778 74.808889 62.72 76.8c4.181333 5.319111 0.568889 13.226667-6.001778 13.226666z m7.793778-382.008889c0 2.190222-1.422222 3.982222-3.214222 3.982223H376.035556v68.721777c0 1.877333-1.792 3.299556-3.982223 3.299556H323.982222c-2.218667 0-4.010667-1.422222-4.010666-3.214222v-68.807111H251.192889c-1.792 0-3.185778-1.792-3.185778-3.982223v-48.014222c0-2.190222 1.393778-3.982222 3.185778-3.982222h68.807111V262.200889c0-1.792 1.792-3.214222 3.982222-3.214222h48.014222c2.218667 0 3.982222 1.422222 3.982223 3.214222v68.807111h68.721777c1.905778 0 3.299556 1.792 3.299556 3.982222v48.014222z m327.992889 369.009778c0 2.190222-1.393778 3.982222-3.185778 3.982222h-193.592889c-1.820444 0-3.214222-1.792-3.214222-3.982222V704c0-2.190222 1.422222-3.982222 3.214222-3.982222h193.479111c1.905778 0 3.299556 1.792 3.299556 3.982222v48.014222z m0-104.021333c0 2.218667-1.393778 3.982222-3.185778 3.982222h-193.592889c-1.820444 0-3.214222-1.763556-3.214222-3.982222v-47.985778c0-2.218667 1.422222-3.982222 3.214222-3.982222h193.479111c1.905778 0 3.299556 1.763556 3.299556 3.982222v47.985778z m0-264.988445c0 2.190222-1.393778 3.982222-3.185778 3.982223h-193.592889c-1.820444 0-3.214222-1.792-3.214222-3.982223v-48.014222c0-2.190222 1.422222-3.982222 3.214222-3.982222h193.479111c1.905778 0 3.299556 1.792 3.299556 3.982222v48.014222z" fill="#2c2c2c" fill-opacity=".65" p-id="107372"></path></svg>