<svg xmlns="http://www.w3.org/2000/svg" width="24" height="24" viewBox="0 0 24 24" fill="none">
<path fill-rule="evenodd" clip-rule="evenodd" d="M1.125 4.80322C1.125 2.73215 2.80393 1.05322 4.875 1.05322H17.875C19.9461 1.05322 21.625 2.73215 21.625 4.80322V10.5532H1.125V4.80322ZM11.625 6.30322C11.625 5.88901 11.9608 5.55322 12.375 5.55322H16.375C16.7892 5.55322 17.125 5.88901 17.125 6.30322C17.125 6.71744 16.7892 7.05322 16.375 7.05322H12.375C11.9608 7.05322 11.625 6.71744 11.625 6.30322ZM7.58875 4.55322C6.76032 4.55322 6.08875 5.2248 6.08875 6.05322C6.08875 6.88165 6.76032 7.55322 7.58875 7.55322C8.41717 7.55322 9.08875 6.88165 9.08875 6.05322C9.08875 5.2248 8.41717 4.55322 7.58875 4.55322Z" fill="black"/>
<path fill-rule="evenodd" clip-rule="evenodd" d="M1.125 12.0532H21.625V14.4308C20.5748 13.2788 19.0608 12.5532 17.375 12.5532C16.0505 12.5532 14.8148 13.0034 13.8283 13.7651C13.2272 13.4844 12.5082 13.471 11.8688 13.7908C10.7573 14.3465 10.3068 15.698 10.8625 16.8095L11.8625 18.8095C11.9206 18.9256 11.9877 19.0349 12.0627 19.1369C11.9012 19.6574 11.9272 20.2376 12.1795 20.7687C12.3097 21.0427 12.461 21.3049 12.6314 21.5532H4.875C2.80393 21.5532 1.125 19.8743 1.125 17.8032V12.0532ZM6.08875 16.017C6.08875 15.1885 6.76032 14.517 7.58875 14.517C8.41717 14.517 9.08875 15.1885 9.08875 16.017C9.08875 16.8454 8.41717 17.517 7.58875 17.517C6.76032 17.517 6.08875 16.8454 6.08875 16.017Z" fill="black"/>
<path fill-rule="evenodd" clip-rule="evenodd" d="M13.7188 15.7139C14.8209 14.3042 16.7197 13.6209 18.5587 14.0998C19.5368 14.3546 20.3625 14.9018 20.957 15.6242C21.3079 16.0507 21.2466 16.6809 20.8202 17.0318C20.3937 17.3827 19.7635 17.3215 19.4126 16.895C19.0815 16.4927 18.6176 16.1819 18.0546 16.0353C16.6412 15.6671 15.2249 16.4897 14.8616 17.8076C14.7617 18.1701 14.4668 18.4459 14.0984 18.5214C13.7299 18.597 13.3503 18.4594 13.1158 18.1653L12.0932 16.8832C11.7488 16.4514 11.8197 15.8222 12.2514 15.4778C12.6832 15.1335 13.3124 15.2043 13.6568 15.6361L13.7188 15.7139ZM20.6512 18.3735C20.2829 18.4491 19.9881 18.7249 19.8882 19.0873C19.5249 20.4052 18.1087 21.2278 16.6952 20.8596C16.1317 20.7129 15.6674 20.4016 15.3363 19.9987C14.9856 19.572 14.3555 19.5103 13.9288 19.8609C13.5021 20.2116 13.4404 20.8417 13.7911 21.2684C14.3856 21.992 15.212 22.5401 16.1912 22.7951C18.0305 23.2741 19.9297 22.5904 21.0318 21.1802L21.0936 21.2576C21.4383 21.6892 22.0675 21.7596 22.499 21.4149C22.9306 21.0702 23.001 20.441 22.6563 20.0095L21.6336 18.729C21.399 18.4353 21.0194 18.2979 20.6512 18.3735Z" fill="black"/>
</svg>