<?xml version="1.0" standalone="no"?><!DOCTYPE svg PUBLIC "-//W3C//DTD SVG 1.1//EN" "http://www.w3.org/Graphics/SVG/1.1/DTD/svg11.dtd"><svg t="1759222119836" class="icon" viewBox="0 0 1024 1024" version="1.1" xmlns="http://www.w3.org/2000/svg" p-id="103271" xmlns:xlink="http://www.w3.org/1999/xlink" width="200" height="200"><path d="M612.668659 3.130206l-100.669199 53.250253L410.987624 2.94862c-19.410304-10.267206-41.58656 7.946573-35.286156 28.982509l54.773202 182.880343c26.903991-8.404863 54.134406-12.635397 81.52479-12.635397 27.013159 0 53.869592 4.122447 80.412572 12.298165l55.509276-182.252356C654.337365 11.16433 632.128683-7.16294 612.668659 3.130206z" p-id="103272" fill="#2c2c2c"></path><path d="M905.02731 758.97877c0-217.062928-175.963841-524.377609-393.02677-524.377609s-393.02677 307.314681-393.02677 524.377609c0 217.060766 175.963841 265.020149 393.02677 265.020149C729.063469 1024.002162 905.02731 976.042779 905.02731 758.97877zM545.862106 817.392349l0 38.56336c0 12.463538-10.105075 22.567532-22.568613 22.567532l-19.45462 0c-12.464619 0-22.568613-10.103994-22.568613-22.567532l0-35.10565c-26.879131-3.302065-59.156139-13.156377-85.796397-30.827558-9.719203-6.447403-12.518662-19.797256-6.246361-29.631032l20.080445-31.478243c6.339316-9.934297 19.508663-13.02343 29.520783-6.804091 23.084189 14.343175 42.566911 20.312832 62.049634 20.312832 28.83551 0 40.370579-9.805673 40.370579-32.295382 0-46.140275-148.789632-52.481752-148.789632-153.403876 0-58.248206 32.871487-98.617704 88.812031-110.727796l0-38.360156c0-11.938234 9.67813-21.617445 21.617445-21.617445l21.355874 0c11.939315 0 21.617445 9.67813 21.617445 21.617445l0 37.206866c28.288589 4.489943 51.333866 16.672455 71.039248 33.280057 9.259833 7.803898 10.430417 21.634739 2.497896 30.782161l-21.770929 25.096773c-7.273189 8.387569-19.748617 10.067244-28.833348 3.690098-14.787413-10.380697-28.846319-15.571046-44.847552-15.571046-24.797371 0-36.908545 6.919744-36.908545 29.98772 0 43.830451 148.789632 46.138113 148.789632 151.096213C635.827428 759.146305 606.414732 802.975675 545.862106 817.392349z" p-id="103273" fill="#2c2c2c"></path></svg>