<?xml version="1.0" standalone="no"?><!DOCTYPE svg PUBLIC "-//W3C//DTD SVG 1.1//EN" "http://www.w3.org/Graphics/SVG/1.1/DTD/svg11.dtd"><svg t="1759224263540" class="icon" viewBox="0 0 1025 1024" version="1.1" xmlns="http://www.w3.org/2000/svg" p-id="19182" xmlns:xlink="http://www.w3.org/1999/xlink" width="200.1953125" height="200"><path d="M967.744209 71.059947H605.363727V0L0 114.760896v794.478208l605.363727 114.760896v-71.98951h362.380482a57.380448 57.380448 0 0 0 57.380448-57.380448V128.440395a57.380448 57.380448 0 0 0-57.380448-57.380448zM382.325925 646.539937h-159.288123V377.47154H376.071457v46.902778h-95.710588v63.405395h88.939695v46.730637h-88.939695v65.138284h101.965056z m573.942194 236.614015H673.554652v-61.867599h196.814936a34.428269 34.428269 0 0 0 34.428269-34.428269 34.428269 34.428269 0 0 0-34.428269-34.428269h-196.814936v-43.379618h196.814936a34.428269 34.428269 0 0 0 34.428269-34.428269 34.428269 34.428269 0 0 0-34.428269-34.428269h-196.814936v-43.379619h196.814936a34.428269 34.428269 0 0 0 34.428269-34.428269 34.428269 34.428269 0 0 0-34.428269-34.428268h-196.814936v-43.379619h196.814936a34.428269 34.428269 0 0 0 34.428269-34.428269 34.428269 34.428269 0 0 0-34.428269-34.428269h-196.814936v-43.379619h196.814936a34.428269 34.428269 0 0 0 34.428269-34.428268 34.428269 34.428269 0 0 0-34.428269-34.428269h-196.814936v-43.379619h196.814936a34.428269 34.428269 0 0 0 34.428269-34.428269 34.428269 34.428269 0 0 0-34.428269-34.428269h-196.814936v-51.332548h282.713467z" p-id="19183" fill="#2c2c2c"></path></svg>