<?xml version="1.0" standalone="no"?><!DOCTYPE svg PUBLIC "-//W3C//DTD SVG 1.1//EN" "http://www.w3.org/Graphics/SVG/1.1/DTD/svg11.dtd"><svg t="1759220482627" class="icon" viewBox="0 0 1024 1024" version="1.1" xmlns="http://www.w3.org/2000/svg" p-id="40885" xmlns:xlink="http://www.w3.org/1999/xlink" width="200" height="200"><path d="M912.018286 272.018286q7.972571 7.972571 16.018286 20.553143l-269.677714 0 0-269.677714q12.580571 7.972571 20.553143 16.018286zM640 365.714286l310.857143 0 0 603.428571q0 22.820571-16.018286 38.838857t-38.838857 16.018286l-768 0q-22.820571 0-38.838857-16.018286t-16.018286-38.838857l0-914.285714q0-22.820571 16.018286-38.838857t38.838857-16.018286l457.142857 0 0 310.857143q0 22.820571 16.018286 38.838857t38.838857 16.018286zM731.428571 786.285714l0-36.571429q0-7.972571-5.12-13.165714t-13.165714-5.12l-402.285714 0q-7.972571 0-13.165714 5.12t-5.12 13.165714l0 36.571429q0 7.972571 5.12 13.165714t13.165714 5.12l402.285714 0q7.972571 0 13.165714-5.12t5.12-13.165714zM731.428571 640l0-36.571429q0-7.972571-5.12-13.165714t-13.165714-5.12l-402.285714 0q-7.972571 0-13.165714 5.12t-5.12 13.165714l0 36.571429q0 7.972571 5.12 13.165714t13.165714 5.12l402.285714 0q7.972571 0 13.165714-5.12t5.12-13.165714zM731.428571 493.714286l0-36.571429q0-7.972571-5.12-13.165714t-13.165714-5.12l-402.285714 0q-7.972571 0-13.165714 5.12t-5.12 13.165714l0 36.571429q0 7.972571 5.12 13.165714t13.165714 5.12l402.285714 0q7.972571 0 13.165714-5.12t5.12-13.165714z" fill="#2c2c2c" p-id="40886"></path></svg>