<?xml version="1.0" standalone="no"?><!DOCTYPE svg PUBLIC "-//W3C//DTD SVG 1.1//EN" "http://www.w3.org/Graphics/SVG/1.1/DTD/svg11.dtd"><svg t="1759222424034" class="icon" viewBox="0 0 1024 1024" version="1.1" xmlns="http://www.w3.org/2000/svg" p-id="125438" xmlns:xlink="http://www.w3.org/1999/xlink" width="200" height="200"><path d="M33.674803 589.268513a31.775382 31.775382 0 0 1-31.544168-28.901724 526.374727 526.374727 0 0 1-2.13047-47.349283 512.799174 512.799174 0 0 1 72.914923-263.963581 31.560683 31.560683 0 0 1 43.699408-9.925678 31.990081 31.990081 0 0 1 10.619319 42.658945 449.463109 449.463109 0 0 0-63.848039 231.230314c0 13.872828 0.644096 27.877778 1.899257 41.618484a31.775382 31.775382 0 0 1-28.670511 34.516917h-0.033031a33.658123 33.658123 0 0 1-2.906688 0.115606z m138.711764-384.723245a31.67629 31.67629 0 0 1-31.67629-31.67629 31.874474 31.874474 0 0 1 9.265067-22.559861c195.276568-195.342629 508.967631-200.924791 710.998945-12.650697 12.898427 11.890995 13.740706 32.006596 1.932287 44.987599a31.511138 31.511138 0 0 1-44.723355 1.932286l-0.429397-0.412881c-177.027193-164.95453-451.841308-160.049494-622.939519 11.065231-5.962013 5.978528-14.037981 9.314613-22.427738 9.314613z m798.067455 484.062602a31.758867 31.758867 0 0 1-31.692805-31.841443c0-3.187447 0.462428-6.424441 1.403798-9.446735a451.411911 451.411911 0 0 0-52.865384-380.544881 31.95705 31.95705 0 0 1 9.628403-44.013198 31.544168 31.544168 0 0 1 43.369103 9.14946 514.830552 514.830552 0 0 1 60.396347 434.33512 31.742351 31.742351 0 0 1-30.239462 22.361677z m-900.726381 70.685362a31.692806 31.692806 0 0 1-31.692806-31.64326 31.95705 31.95705 0 0 1 9.512796-22.84062c76.036309-74.516904 65.928963-148.604411 65.813356-149.347599l-0.363336-3.121386c-12.18827-172.667161 88.736553-333.228629 249.017261-396.168328a395.375595 395.375595 0 0 1 118.695255-26.903377c177.489621-12.221301 341.403688 95.887665 401.007303 264.5251a31.924019 31.924019 0 0 1-20.066055 40.330293 31.626745 31.626745 0 0 1-39.801804-19.339383c-50.057787-141.585421-187.729089-232.336837-336.746382-222.064338a337.786844 337.786844 0 0 0-51.775375 7.646571c-158.645696 36.399658-267.580426 183.22042-257.093229 346.556453 2.014863 15.54087 9.892648 111.0652-84.31046 203.352535a31.659775 31.659775 0 0 1-22.163494 9.066884v-0.049545z m726.407693 174.467326a31.709321 31.709321 0 0 1-31.626745-31.808413c0-4.360032 0.858794-8.703548 2.592898-12.716759 87.250178-199.537508 71.725823-367.299634 71.52764-368.984191a31.890989 31.890989 0 0 1 28.753087-34.649039 31.791897 31.791897 0 0 1 34.36828 28.158537c0.743187 7.415357 17.770432 185.284829-76.564798 400.974272a31.659775 31.659775 0 0 1-29.050362 19.025593z m-661.66783-72.832347a31.692806 31.692806 0 0 1-31.709321-31.64326 31.709321 31.709321 0 0 1 13.327824-26.061098 200.974336 200.974336 0 0 0 76.746466-106.506984 31.742351 31.742351 0 0 1 37.935578-24.062751 31.890989 31.890989 0 0 1 24.046235 37.605273 261.684474 261.684474 0 0 1-102.047861 144.805899c-5.350948 3.798512-11.758873 5.862921-18.298921 5.862921z m129.413666-237.952029a31.791897 31.791897 0 0 1-31.246893-37.44012l0.016515-0.049546c4.822459-26.407919 8.24112-53.014021 10.173407-79.752245a260.759619 260.759619 0 0 1 60.198164-162.791029l0.924855-1.106523c103.005747-118.794346 233.261692-103.616812 287.811633-78.976028a31.824928 31.824928 0 0 1 16.317088 41.849698 31.494622 31.494622 0 0 1-41.601968 16.432695c-0.231214-0.082576-0.429397-0.181668-0.660611-0.297275-5.070188-2.196531-116.680392-49.017325-213.509427 62.113935a197.81992 197.81992 0 0 0-46.044577 124.673783 788.207838 788.207838 0 0 1-11.213869 89.364133 31.659775 31.659775 0 0 1-31.164317 25.978522z m352.15513 401.007303a31.659775 31.659775 0 0 1-31.659775-31.742352c0-6.457471 1.932287-12.78282 5.598677-18.133768 125.961974-182.510263 133.839759-397.20879 126.672131-458.034534l-0.214699-2.972749c-1.701073-70.388086-52.056135-132.023079-52.601139-132.634144a31.973565 31.973565 0 0 1 3.864574-44.888507 31.494622 31.494622 0 0 1 44.591232 3.881089c2.658959 3.121386 64.624257 77.671321 67.497914 170.652298 7.630055 68.951258-1.568951 302.972652-137.671302 500.164992a31.560683 31.560683 0 0 1-26.077613 13.707675z" fill="#2c2c2c" p-id="125439"></path><path d="M225.879531 931.960393a31.593714 31.593714 0 0 1-31.544168-31.67629 31.610229 31.610229 0 0 1 7.663085-20.743181c91.478088-106.473954 106.721683-141.387238 127.844716-189.661376 3.517753-8.125513 7.118082-16.217996 10.784472-24.293964 21.321215-46.738218 22.411223-125.516062 21.073486-151.923981l-0.049546-1.651527c0.033031-83.930609 67.696097-151.957011 151.131248-151.92398 83.385605 0.016515 151.032156 68.026402 151.048671 151.92398 0 17.555733-14.120557 31.742351-31.560683 31.742352s-31.560683-14.186618-31.560684-31.742352c-0.165153-48.868688-39.669682-88.356701-88.274125-88.175033-48.075955 0.148637-87.101541 39.108162-87.646545 87.481392 0.511973 11.59372 4.062757 113.014002-26.78777 180.677068-3.765482 8.257636-7.134597 15.970267-10.37159 23.352594-22.444254 51.379009-40.181655 91.924-137.85297 205.598612a31.412046 31.412046 0 0 1-23.897597 11.015686z m110.239436 58.695274a31.610229 31.610229 0 0 1-31.61023-31.610229 31.808413 31.808413 0 0 1 8.967793-22.229555c0.875309-0.90834 89.331102-93.228707 132.832327-200.660547 43.20395-106.573046 35.02889-223.286468 34.946314-224.475567a31.709321 31.709321 0 0 1 29.116423-34.037974 31.67629 31.67629 0 0 1 33.872822 29.281576c0.396367 5.350948 9.281582 132.865358-39.454983 253.146078-48.241107 119.091621-142.080879 216.862027-146.028029 220.957815-5.945498 6.160196-14.120557 9.611888-22.658953 9.578857v0.049546z m131.445044 33.327818a31.593714 31.593714 0 0 1-31.560683-31.659775 31.841443 31.841443 0 0 1 5.945497-18.596196c155.309611-216.895058 153.476416-344.85538 153.410355-346.110541a31.775382 31.775382 0 0 1 30.652344-32.683721 31.659775 31.659775 0 0 1 32.485539 30.834011c0.198183 6.061105 2.361684 150.867003-165.301351 385.02052a31.544168 31.544168 0 0 1-25.631701 13.195702z" fill="#2c2c2c" p-id="125440"></path></svg>