<?xml version="1.0" standalone="no"?><!DOCTYPE svg PUBLIC "-//W3C//DTD SVG 1.1//EN" "http://www.w3.org/Graphics/SVG/1.1/DTD/svg11.dtd"><svg t="1759221130278" class="icon" viewBox="0 0 1024 1024" version="1.1" xmlns="http://www.w3.org/2000/svg" p-id="63414" xmlns:xlink="http://www.w3.org/1999/xlink" width="200" height="200"><path d="M1005.312 666.026667l-288.768-230.826667a10.624 10.624 0 0 1 0-16.64l255.445333-204.330667c22.272-17.834667 20.693333-34.133333 17.834667-42.666666s-12.032-22.229333-40.490667-22.229334h-405.333333V85.333333a64 64 0 0 0-64-64h-256a21.333333 21.333333 0 0 0-21.333333 21.333334v512a21.333333 21.333333 0 0 0 21.333333 21.333333h180.48a151.466667 151.466667 0 0 0-66.56 69.333333 42.666667 42.666667 0 0 0 39.594667 58.666667h614.4a21.333333 21.333333 0 0 0 13.312-37.973333zM74.666667 0a64 64 0 0 0-64 64v896a64 64 0 0 0 128 0v-896A64 64 0 0 0 74.666667 0z" p-id="63415" fill="#2c2c2c"></path></svg>