<?xml version="1.0" standalone="no"?><!DOCTYPE svg PUBLIC "-//W3C//DTD SVG 1.1//EN" "http://www.w3.org/Graphics/SVG/1.1/DTD/svg11.dtd"><svg t="1759221941285" class="icon" viewBox="0 0 1024 1024" version="1.1" xmlns="http://www.w3.org/2000/svg" p-id="91677" xmlns:xlink="http://www.w3.org/1999/xlink" width="200" height="200"><path d="M102.4 102.4c0-56.32 46.08-102.4 102.4-102.4h614.4a102.4 102.4 0 0 1 102.4 102.4v819.2a102.4 102.4 0 0 1-102.4 102.4H204.8a102.4 102.4 0 0 1-102.4-102.4V102.4z m532.48 286.72A256 256 0 1 0 768 614.4V255.9488l-133.12 133.12zM512 716.8a102.4 102.4 0 1 1 0-204.8 102.4 102.4 0 1 1 0 204.8zM307.2 153.6v102.4h204.8V153.6H307.2zM204.8 153.6a51.2 51.2 0 0 0 0-102.4 51.2 51.2 0 0 0 0 102.4z m0 819.2a51.2 51.2 0 0 0 0-102.4 51.2 51.2 0 0 0 0 102.4z m614.4 0a51.2 51.2 0 0 0 0-102.4 51.2 51.2 0 0 0 0 102.4z m0-819.2a51.2 51.2 0 0 0 0-102.4 51.2 51.2 0 0 0 0 102.4z" p-id="91678" fill="#2c2c2c"></path></svg>