<?xml version="1.0" standalone="no"?><!DOCTYPE svg PUBLIC "-//W3C//DTD SVG 1.1//EN" "http://www.w3.org/Graphics/SVG/1.1/DTD/svg11.dtd"><svg t="1759221605895" class="icon" viewBox="0 0 1024 1024" version="1.1" xmlns="http://www.w3.org/2000/svg" p-id="77878" xmlns:xlink="http://www.w3.org/1999/xlink" width="200" height="200"><path d="M960 593.92V448A448 448 0 1 0 64 448v145.92A128 128 0 0 0 0 704v192a128 128 0 0 0 128 128h64a128 128 0 0 0 128-128v-192a128 128 0 0 0-128-128V448a320 320 0 0 1 640 0v128a128 128 0 0 0-128 128v192a128 128 0 0 0 128 128h64a128 128 0 0 0 128-128v-192a128 128 0 0 0-64-110.08zM192 896H128v-192h64v192z m640 0v-192h64v192h-64z" fill="#2c2c2c" p-id="77879"></path></svg>