<?xml version="1.0" standalone="no"?><!DOCTYPE svg PUBLIC "-//W3C//DTD SVG 1.1//EN" "http://www.w3.org/Graphics/SVG/1.1/DTD/svg11.dtd"><svg t="1759222395899" class="icon" viewBox="0 0 1030 1024" version="1.1" xmlns="http://www.w3.org/2000/svg" p-id="122616" xmlns:xlink="http://www.w3.org/1999/xlink" width="201.171875" height="200"><path d="M1013.827815 820.556291l-325.509934-325.509933 20.344371-20.344371c3.390728-3.390728 3.390728-6.781457 3.390728-13.562914 0-3.390728-3.390728-10.172185-6.781457-13.562914l-37.298013-33.907285c6.781457-23.735099 6.781457-47.470199 6.781457-74.596026 0-186.490066-152.582781-339.072848-339.072848-339.072848C149.192053 3.390728 0 152.582781 0 339.072848v3.390728c0 210.225166 193.271523 379.761589 413.668874 332.291391l33.907285 37.298013c6.781457 6.781457 13.562914 6.781457 20.344371 3.390729l40.688742-27.125828 37.298013 37.298013v77.986755c0 10.172185 6.781457 16.953642 16.953642 16.953642h61.033113l91.549669 74.596027v77.986755c0 10.172185 6.781457 16.953642 16.953642 16.953642h61.033113l30.516556 30.516557c3.390728 3.390728 6.781457 3.390728 13.562914 3.390728h169.536424c10.172185 0 16.953642-6.781457 16.953642-16.953642v-169.536424c-6.781457-6.781457-10.172185-13.562914-10.172185-16.953643zM220.397351 274.649007C193.271523 274.649007 169.536424 250.913907 169.536424 223.788079S193.271523 172.927152 220.397351 172.927152 271.258278 196.662252 271.258278 223.788079 247.523179 274.649007 220.397351 274.649007z m691.708609 640.847682c-3.390728 3.390728-10.172185 3.390728-13.562914 3.390728s-10.172185 0-13.562914-3.390728l-305.165562-305.165563c-6.781457-6.781457-6.781457-16.953642 0-23.7351s16.953642-6.781457 23.735099 0l305.165563 305.165563c6.781457 3.390728 6.781457 16.953642 3.390728 23.7351z" fill="#2c2c2c" p-id="122617"></path></svg>