<?xml version="1.0" standalone="no"?><!DOCTYPE svg PUBLIC "-//W3C//DTD SVG 1.1//EN" "http://www.w3.org/Graphics/SVG/1.1/DTD/svg11.dtd"><svg t="1759221871853" class="icon" viewBox="0 0 1024 1024" version="1.1" xmlns="http://www.w3.org/2000/svg" p-id="86962" xmlns:xlink="http://www.w3.org/1999/xlink" width="200" height="200"><path d="M146.517333 682.666667l56.917334-85.333334h574.464l56.917333 85.333334H146.517333z m0 0H106.666667a21.333333 21.333333 0 0 0-17.578667 9.258666L170.666667 569.557333V234.666667A64 64 0 0 1 234.666667 170.666667h512A64 64 0 0 1 810.666667 234.666667v334.890666l81.578666 122.368L146.517333 682.666667zM896 705.152a21.333333 21.333333 0 0 1-21.333333 20.181333H853.333333v42.666667H128v-42.666667h725.333333l42.666667-20.181333zM128 725.333333h-21.333333a21.333333 21.333333 0 0 1-21.333334-20.181333L128 725.333333z m640-170.666666H213.333333V234.666667a21.333333 21.333333 0 0 1 21.333334-21.333334h512a21.333333 21.333333 0 0 1 21.333333 21.333334V554.666667z" fill="#2c2c2c" p-id="86963"></path></svg>