<?xml version="1.0" standalone="no"?><!DOCTYPE svg PUBLIC "-//W3C//DTD SVG 1.1//EN" "http://www.w3.org/Graphics/SVG/1.1/DTD/svg11.dtd"><svg t="1759220177830" class="icon" viewBox="0 0 1024 1024" version="1.1" xmlns="http://www.w3.org/2000/svg" p-id="32202" xmlns:xlink="http://www.w3.org/1999/xlink" width="200" height="200"><path d="M522.88 892.48a26.56 26.56 0 0 1-21.76 0L100.8 712.96 48.64 736a29.12 29.12 0 0 0 0 52.8L501.12 992a26.56 26.56 0 0 0 21.76 0l452.48-203.2a29.12 29.12 0 0 0 0-52.8l-51.84-23.36z m0-254.08a26.56 26.56 0 0 1-21.76 0L105.92 461.12l-57.28 25.6a29.12 29.12 0 0 0 0 52.8l452.48 203.2a26.56 26.56 0 0 0 21.76 0l452.48-203.2a29.12 29.12 0 0 0 0-52.8l-57.28-25.6zM975.36 290.24a29.12 29.12 0 0 0 0-52.8L522.88 34.24a26.56 26.56 0 0 0-21.76 0L48.64 237.44a29.12 29.12 0 0 0 0 52.8l452.48 203.2a26.56 26.56 0 0 0 21.76 0z" fill="#2c2c2c" p-id="32203"></path></svg>