<?xml version="1.0" standalone="no"?><!DOCTYPE svg PUBLIC "-//W3C//DTD SVG 1.1//EN" "http://www.w3.org/Graphics/SVG/1.1/DTD/svg11.dtd"><svg t="1759220993959" class="icon" viewBox="0 0 1024 1024" version="1.1" xmlns="http://www.w3.org/2000/svg" p-id="60133" xmlns:xlink="http://www.w3.org/1999/xlink" width="200" height="200"><path d="M941.714286 832H155.428571V118.857143c0-5.028571-4.114286-9.142857-9.142857-9.142857h-64c-5.028571 0-9.142857 4.114286-9.142857 9.142857v786.285714c0 5.028571 4.114286 9.142857 9.142857 9.142857h859.428572c5.028571 0 9.142857-4.114286 9.142857-9.142857v-64c0-5.028571-4.114286-9.142857-9.142857-9.142857zM276.342857 655.657143c3.542857 3.542857 9.257143 3.542857 12.914286 0l158.057143-157.257143L593.142857 645.142857c3.542857 3.542857 9.371429 3.542857 12.914286 0l314.742857-314.628571c3.542857-3.542857 3.542857-9.371429 0-12.914286l-45.257143-45.257143a9.177143 9.177143 0 0 0-12.914286 0l-262.857142 262.742857L454.171429 388.571429a9.177143 9.177143 0 0 0-12.914286 0L231.2 597.371429a9.177143 9.177143 0 0 0 0 12.914285l45.142857 45.371429z" p-id="60134" fill="#2c2c2c"></path></svg>