<?xml version="1.0" standalone="no"?><!DOCTYPE svg PUBLIC "-//W3C//DTD SVG 1.1//EN" "http://www.w3.org/Graphics/SVG/1.1/DTD/svg11.dtd"><svg t="1759222370651" class="icon" viewBox="0 0 1024 1024" version="1.1" xmlns="http://www.w3.org/2000/svg" p-id="120633" xmlns:xlink="http://www.w3.org/1999/xlink" width="200" height="200"><path d="M832 448l-64 0 0-192C768 114.624 653.376 0 512 0c-141.376 0-256 114.624-256 256l0 192L192 448c-35.2 0-64 28.8-64 64l0 448c0 35.2 28.8 64 64 64l640 0c35.2 0 64-28.8 64-64L896 512C896 476.8 867.2 448 832 448zM512 832c-35.36 0-64-28.64-64-64s28.64-64 64-64 64 28.64 64 64S547.36 832 512 832zM640 448 384 448l0-192c0-70.592 57.408-128 128-128s128 57.408 128 128L640 448z" fill="#2c2c2c" p-id="120634"></path></svg>