<?xml version="1.0" standalone="no"?><!DOCTYPE svg PUBLIC "-//W3C//DTD SVG 1.1//EN" "http://www.w3.org/Graphics/SVG/1.1/DTD/svg11.dtd"><svg t="1759222915737" class="icon" viewBox="0 0 1024 1024" version="1.1" xmlns="http://www.w3.org/2000/svg" p-id="158477" xmlns:xlink="http://www.w3.org/1999/xlink" width="200" height="200"><path d="M883.626667 823.04l-145.066667-144.64A337.92 337.92 0 0 0 810.666667 469.333333a341.333333 341.333333 0 1 0-341.333334 341.333334 337.92 337.92 0 0 0 209.066667-72.106667l144.64 145.066667a42.666667 42.666667 0 0 0 60.586667 0 42.666667 42.666667 0 0 0 0-60.586667zM554.666667 512h-42.666667v42.666667a42.666667 42.666667 0 0 1-85.333333 0v-42.666667H384a42.666667 42.666667 0 0 1 0-85.333333h42.666667V384a42.666667 42.666667 0 0 1 85.333333 0v42.666667h42.666667a42.666667 42.666667 0 0 1 0 85.333333z" fill="#231F20" p-id="158478"></path></svg>