<svg xmlns="http://www.w3.org/2000/svg" width="26" height="25" viewBox="0 0 26 25" fill="none">
<path fill-rule="evenodd" clip-rule="evenodd" d="M22.5445 3.19985C22.278 2.93338 21.846 2.93338 21.5795 3.19985L16.5758 8.20356C16.4479 8.33152 16.376 8.50507 16.376 8.68604V10.9604C16.376 11.3373 16.6815 11.6428 17.0583 11.6428H19.3327C19.5137 11.6428 19.6872 11.5709 19.8152 11.4429L24.8189 6.43921C25.0854 6.17275 25.0854 5.74073 24.8189 5.47426L22.5445 3.19985ZM13.75 3.38281C15.4186 3.38281 16.9985 3.76299 18.4076 4.44145L15.6108 7.23827C15.2269 7.62215 15.0112 8.1428 15.0112 8.68569V10.9601C15.0112 12.0906 15.9277 13.0071 17.0582 13.0071H19.3326C19.8755 13.0071 20.3962 12.7914 20.78 12.4075L23.528 9.65959C24.1521 11.0216 24.5 12.5366 24.5 14.1328C24.5 20.0699 19.6871 24.8828 13.75 24.8828C12.0363 24.8828 10.5538 24.4431 9.18153 23.7352C8.82487 23.5512 8.44343 23.5078 8.11345 23.6068L5.74433 24.3175C4.40942 24.718 3.1648 23.4734 3.56528 22.1385L4.27601 19.7694C4.37501 19.4394 4.33161 19.0579 4.14763 18.7013C3.43976 17.329 3 15.8465 3 14.1328C3 8.19575 7.81294 3.38281 13.75 3.38281ZM9.74609 13.1328C9.19381 13.1328 8.74609 13.5805 8.74609 14.1328C8.74609 14.6851 9.19381 15.1328 9.74609 15.1328H9.75507C10.3074 15.1328 10.7551 14.6851 10.7551 14.1328C10.7551 13.5805 10.3074 13.1328 9.75507 13.1328H9.74609ZM13.7428 13.1328C13.1905 13.1328 12.7428 13.5805 12.7428 14.1328C12.7428 14.6851 13.1905 15.1328 13.7428 15.1328H13.7518C14.3041 15.1328 14.7518 14.6851 14.7518 14.1328C14.7518 13.5805 14.3041 13.1328 13.7518 13.1328H13.7428Z" fill="black"/>
</svg>