<?xml version="1.0" standalone="no"?><!DOCTYPE svg PUBLIC "-//W3C//DTD SVG 1.1//EN" "http://www.w3.org/Graphics/SVG/1.1/DTD/svg11.dtd"><svg t="1759221577029" class="icon" viewBox="0 0 1024 1024" version="1.1" xmlns="http://www.w3.org/2000/svg" p-id="76821" xmlns:xlink="http://www.w3.org/1999/xlink" width="200" height="200"><path d="M654.848 981.312H370.752c-27.392 0-48.384-20.288-48.384-46.848s20.992-46.848 48.384-46.848h284.096c27.392 0 48.384 20.288 48.384 46.848s-22.592 46.848-48.384 46.848z" fill="#2c2c2c" p-id="76822"></path><path d="M512.832 981.312c-27.52 0-48.448-20.288-48.448-46.848v-131.2c0-26.56 20.992-46.848 48.448-46.848 27.392 0 48.384 20.288 48.384 46.848v131.2c0 26.56-22.592 46.848-48.384 46.848z" fill="#2c2c2c" p-id="76823"></path><path d="M512.832 850.112c-188.8 0-342.144-148.352-342.144-331.072V426.88c0-26.56 20.928-46.848 48.384-46.848s48.448 20.288 48.448 46.848v92.16c0 131.2 109.696 237.44 245.312 237.44 135.552 0 245.248-106.24 245.248-237.44V426.88c0-26.56 20.992-46.848 48.448-46.848s48.384 20.288 48.384 46.848v92.16c-1.6 182.72-154.88 331.072-342.08 331.072z" fill="#2c2c2c" p-id="76824"></path><path d="M512.832 700.16c-93.632 0-171.072-74.88-171.072-165.504V253.44c0-26.56 20.928-46.848 48.384-46.848s48.448 20.288 48.448 46.848v281.152c0 39.04 33.92 71.808 74.24 71.808 40.32 0 74.24-32.768 74.24-71.808V253.44c0-26.56 20.928-46.848 48.384-46.848s48.384 20.288 48.384 46.848v281.152c0 90.56-77.44 165.568-171.008 165.568z" fill="#2c2c2c" p-id="76825"></path><path d="M635.456 536.192c-27.456 0-48.384-20.288-48.384-46.848V208.192c0-39.04-33.92-71.808-74.24-71.808-40.32 0-74.24 32.768-74.24 71.808v281.152c0 26.56-20.992 46.848-48.448 46.848s-48.384-20.288-48.384-46.848V208.192C341.76 117.632 417.6 42.688 512.832 42.688c95.168 0 171.008 74.944 171.008 165.504v281.152c0 26.56-22.592 46.848-48.384 46.848z" fill="#2c2c2c" p-id="76826"></path></svg>