<?xml version="1.0" standalone="no"?><!DOCTYPE svg PUBLIC "-//W3C//DTD SVG 1.1//EN" "http://www.w3.org/Graphics/SVG/1.1/DTD/svg11.dtd"><svg t="1759221635255" class="icon" viewBox="0 0 1024 1024" version="1.1" xmlns="http://www.w3.org/2000/svg" p-id="78947" xmlns:xlink="http://www.w3.org/1999/xlink" width="200" height="200"><path d="M810.666667 128H213.333333a128 128 0 0 0-128 128v213.333333h853.333334V256a128 128 0 0 0-128-128zM85.333333 597.333333a128 128 0 0 0 128 128h256v85.333334H298.666667a42.666667 42.666667 0 0 0 0 85.333333h426.666666a42.666667 42.666667 0 0 0 0-85.333333h-170.666666v-85.333334h256a128 128 0 0 0 128-128v-42.666666H85.333333z" fill="#2c2c2c" p-id="78948"></path></svg>