<?xml version="1.0" standalone="no"?><!DOCTYPE svg PUBLIC "-//W3C//DTD SVG 1.1//EN" "http://www.w3.org/Graphics/SVG/1.1/DTD/svg11.dtd"><svg t="1759222970950" class="icon" viewBox="0 0 1024 1024" version="1.1" xmlns="http://www.w3.org/2000/svg" p-id="164109" xmlns:xlink="http://www.w3.org/1999/xlink" width="200" height="200"><path d="M808.533333 663.466667c-17.066667-17.066667-17.066667-42.666667 0-59.733334l46.933334-46.933333h-179.2c-14.933333 59.733333-61.866667 106.666667-121.6 121.6v179.2l46.933333-46.933333c17.066667-17.066667 42.666667-17.066667 59.733333 0 17.066667 17.066667 17.066667 42.666667 0 59.733333l-121.6 121.6c-2.133333 2.133333-4.266667 4.266667-6.4 4.266667 0 0-2.133333 2.133333-4.266666 2.133333s-2.133333 2.133333-4.266667 2.133333-2.133333 0-4.266667 2.133334h-25.6c-2.133333 0-2.133333 0-4.266666-2.133334s-2.133333-2.133333-4.266667-2.133333-2.133333-2.133333-4.266667-2.133333c-2.133333-2.133333-4.266667-4.266667-6.4-4.266667l-121.6-121.6c-17.066667-17.066667-17.066667-42.666667 0-59.733333 17.066667-17.066667 42.666667-17.066667 59.733334 0l46.933333 46.933333v-179.2c-59.733333-14.933333-106.666667-61.866667-121.6-121.6H166.4l46.933333 46.933333c17.066667 17.066667 17.066667 42.666667 0 59.733334-8.533333 8.533333-19.2 12.8-29.866666 12.8s-21.333333-4.266667-29.866667-12.8l-121.6-121.6c-2.133333-2.133333-4.266667-4.266667-4.266667-6.4 0-2.133333-2.133333-2.133333-2.133333-4.266667s-2.133333-2.133333-2.133333-4.266667 0-2.133333-2.133334-4.266666v-4.266667-14.933333-4.266667c0-2.133333 0-2.133333 2.133334-4.266667 0-2.133333 2.133333-2.133333 2.133333-4.266666s2.133333-2.133333 2.133333-4.266667c2.133333-2.133333 4.266667-4.266667 4.266667-6.4l121.6-121.6c17.066667-17.066667 42.666667-17.066667 59.733333 0 17.066667 17.066667 17.066667 42.666667 0 59.733333L166.4 469.333333h179.2c14.933333-59.733333 61.866667-106.666667 121.6-121.6V166.4L420.266667 213.333333c-17.066667 17.066667-42.666667 17.066667-59.733334 0-17.066667-17.066667-17.066667-42.666667 0-59.733333l121.6-121.6c2.133333-2.133333 4.266667-4.266667 6.4-4.266667 0 0 2.133333-2.133333 4.266667-2.133333s2.133333-2.133333 4.266667-2.133333 2.133333 0 4.266666-2.133334c2.133333 0 2.133333 0 4.266667-2.133333 4.266667 2.133333 8.533333 2.133333 14.933333 2.133333 2.133333 0 2.133333 0 4.266667 2.133334 2.133333 0 2.133333 0 4.266667 2.133333 2.133333 0 2.133333 2.133333 4.266666 2.133333s2.133333 2.133333 4.266667 2.133334c2.133333 2.133333 4.266667 4.266667 6.4 4.266666l121.6 121.6c17.066667 17.066667 17.066667 42.666667 0 59.733334-8.533333 8.533333-19.2 12.8-29.866667 12.8-10.666667 0-21.333333-4.266667-29.866666-12.8L554.666667 166.4v179.2c59.733333 14.933333 106.666667 61.866667 121.6 121.6h179.2l-46.933334-46.933333c-17.066667-17.066667-17.066667-42.666667 0-59.733334 17.066667-17.066667 42.666667-17.066667 59.733334 0l121.6 121.6c2.133333 2.133333 4.266667 4.266667 4.266666 6.4 0 2.133333 2.133333 2.133333 2.133334 4.266667s2.133333 2.133333 2.133333 4.266667 0 2.133333 2.133333 4.266666v4.266667c2.133333 6.4 2.133333 10.666667 0 17.066667v4.266666c0 2.133333 0 2.133333-2.133333 4.266667 0 2.133333-2.133333 2.133333-2.133333 4.266667s-2.133333 2.133333-2.133334 4.266666c-2.133333 2.133333-4.266667 4.266667-4.266666 6.4l-121.6 121.6c-8.533333 8.533333-19.2 12.8-29.866667 12.8-10.666667-4.266667-21.333333-8.533333-29.866667-17.066666zM512 597.333333c46.933333 0 85.333333-38.4 85.333333-85.333333s-38.4-85.333333-85.333333-85.333333-85.333333 38.4-85.333333 85.333333 38.4 85.333333 85.333333 85.333333z" fill="#2c2c2c" p-id="164110"></path></svg>