<?xml version="1.0" standalone="no"?><!DOCTYPE svg PUBLIC "-//W3C//DTD SVG 1.1//EN" "http://www.w3.org/Graphics/SVG/1.1/DTD/svg11.dtd"><svg t="1759222016710" class="icon" viewBox="0 0 1024 1024" version="1.1" xmlns="http://www.w3.org/2000/svg" p-id="95591" xmlns:xlink="http://www.w3.org/1999/xlink" width="200" height="200"><path d="M972.48 256a135.04 135.04 0 0 0-35.84-38.4L800 120A130.56 130.56 0 0 0 723.52 96h-150.08l53.44 160zM443.52 96H293.44a128 128 0 0 0-74.24 24L83.84 217.6A120.32 120.32 0 0 0 49.92 256h340.16zM992 320H640v224h-256v-224H32v480a125.12 125.12 0 0 0 124.48 128h704A131.2 131.2 0 0 0 992 800V321.92 320z" fill="#2c2c2c" p-id="95592"></path></svg>