<?xml version="1.0" standalone="no"?><!DOCTYPE svg PUBLIC "-//W3C//DTD SVG 1.1//EN" "http://www.w3.org/Graphics/SVG/1.1/DTD/svg11.dtd"><svg t="1759221182021" class="icon" viewBox="0 0 1024 1024" version="1.1" xmlns="http://www.w3.org/2000/svg" p-id="65461" xmlns:xlink="http://www.w3.org/1999/xlink" width="200" height="200"><path d="M303.168 977.024c-71.744 0-137.28-26.496-185.6-74.88-51.52-53.056-78.08-123.2-74.88-201.216a317.12 317.12 0 0 1 92.032-202.816l388.416-388.416C608.896 23.936 741.504 19.2 819.456 97.28c78.08 78.016 73.344 212.16-12.416 296.384L404.48 799.168c-24.96 24.96-56.128 39.04-90.432 40.576a121.024 121.024 0 0 1-92.096-34.304c-48.32-48.384-45.184-131.072 6.272-182.528l424.32-424.32c18.688-18.688 48.32-18.688 65.472 0 18.752 18.752 18.752 48.384 0 65.536l-424.32 424.32c-15.552 15.616-18.688 37.44-6.208 49.92a31.488 31.488 0 0 0 21.824 7.808c10.944 0 20.288-4.672 28.16-14.08l403.968-404.032c48.384-48.32 54.592-123.2 12.48-165.312-42.112-42.112-115.456-37.44-165.376 12.48L201.792 565.12c-39.04 39.04-62.4 88.96-65.536 141.952-3.136 49.92 14.08 96.704 46.784 129.472 32.768 32.768 79.552 49.92 129.472 46.848 51.456-3.2 102.976-26.56 141.952-65.536l408.704-408.704c18.752-18.752 48.384-18.752 65.536 0 18.688 18.688 18.688 48.384 0 65.536l-407.168 410.24c-56.128 56.192-127.872 88.96-202.752 92.032h-15.616z" fill="#2c2c2c" p-id="65462"></path></svg>