<?xml version="1.0" standalone="no"?><!DOCTYPE svg PUBLIC "-//W3C//DTD SVG 1.1//EN" "http://www.w3.org/Graphics/SVG/1.1/DTD/svg11.dtd"><svg t="1759222230866" class="icon" viewBox="0 0 1024 1024" version="1.1" xmlns="http://www.w3.org/2000/svg" p-id="111256" xmlns:xlink="http://www.w3.org/1999/xlink" width="200" height="200"><path d="M704.877714 570.002286l-250.88-250.88a73.581714 73.581714 0 0 0-70.217143-19.236572l-229.156571 59.977143a72.630857 72.630857 0 0 0-54.637714 71.460572A1421.604571 1421.604571 0 0 1 3.218286 958.171429a48.493714 48.493714 0 0 0 62.390857 62.390857 1421.604571 1421.604571 0 0 1 526.848-96.548572 72.630857 72.630857 0 0 0 71.460571-54.637714L724.114286 640.219429a73.581714 73.581714 0 0 0-19.236572-70.217143zM477.622857 719.945143a122.733714 122.733714 0 1 1 0-173.568 122.88 122.88 0 0 1 0 173.568z" fill="#2c2c2c" p-id="111257"></path><path d="M657.864209-30.275132m51.71981 51.719811l293.096165 293.096164q51.71981 51.71981 0 103.439621l-104.267137 104.267138q-51.71981 51.71981-103.439621 0l-293.096165-293.096165q-51.71981-51.71981 0-103.439621l104.267138-104.267137q51.71981-51.71981 103.43962 0Z" fill="#2c2c2c" p-id="111258"></path></svg>