<?xml version="1.0" standalone="no"?><!DOCTYPE svg PUBLIC "-//W3C//DTD SVG 1.1//EN" "http://www.w3.org/Graphics/SVG/1.1/DTD/svg11.dtd"><svg t="1759222139022" class="icon" viewBox="0 0 1024 1024" version="1.1" xmlns="http://www.w3.org/2000/svg" p-id="105105" xmlns:xlink="http://www.w3.org/1999/xlink" width="200" height="200"><path d="M346.5025 346.5c49.98-49.98 49.98-131.04 0-181.02-49.98-49.98-131.04-49.98-181.02 0-49.98 49.98-49.98 131.04 0 181.02 50 50 131.04 50 181.02 0z m512 330.98c-49.98-49.98-131.04-49.98-181.02 0-49.98 49.98-49.98 131.04 0 181.02 49.98 49.98 131.04 49.98 181.02 0 50-49.98 50-131.02 0-181.02z m-3.88-462.86l-45.24-45.24c-25-25-65.52-25-90.5 0L169.3825 718.88c-25 25-25 65.52 0 90.5l45.24 45.24c25 25 65.52 25 90.5 0l549.5-549.5c25-24.98 25-65.5 0-90.5z" p-id="105106" fill="#2c2c2c"></path></svg>