<?xml version="1.0" standalone="no"?><!DOCTYPE svg PUBLIC "-//W3C//DTD SVG 1.1//EN" "http://www.w3.org/Graphics/SVG/1.1/DTD/svg11.dtd"><svg t="1759222190667" class="icon" viewBox="0 0 1024 1024" version="1.1" xmlns="http://www.w3.org/2000/svg" p-id="109381" xmlns:xlink="http://www.w3.org/1999/xlink" width="200" height="200"><path d="M890.784 709.152c-45.664-45.568-103.712-69.088-157.952-69.088l-29.12 0-63.904-64 255.616-256.032c63.904-64 63.904-192.032 0-256.032L512 448.064 128.576 64c-63.904 64-63.904 192.032 0 256.032l255.616 256.032-63.904 64-29.12 0c-54.208 0-112.288 23.52-157.952 69.088-81.632 81.44-92.64 202.496-24.64 270.336C138.56 1009.408 178.88 1024 221.6 1024c54.208 0 112.288-23.52 157.952-69.088 53.6-53.472 76.736-124 67.072-185.344l65.376-65.472 65.376 65.472c-9.664 61.344 13.504 131.872 67.072 185.344C690.112 1000.48 748.192 1024 802.4 1024c42.72 0 83.04-14.592 112.992-44.512C983.424 911.648 972.384 790.592 890.784 709.152zM353.024 845.536c-7.712 17.888-19.008 34.336-33.632 48.928-14.624 14.592-31.168 25.92-49.152 33.632-16.128 6.912-32.96 10.56-48.672 10.56-15.136 0-36.608-3.392-52.864-19.616-16.128-16.096-19.52-37.312-19.52-52.288 0-15.552 3.648-32.224 10.528-48.224 7.712-17.888 19.008-34.336 33.632-48.928 14.624-14.592 31.168-25.92 49.152-33.632 16.128-6.912 32.96-10.56 48.672-10.56 15.136 0 36.608 3.392 52.864 19.616 16.128 16.096 19.52 37.312 19.52 52.288C363.552 812.864 359.904 829.536 353.024 845.536zM512 666.592c-49.92 0-90.368-40.544-90.368-90.528 0-49.984 40.448-90.528 90.368-90.528s90.368 40.512 90.368 90.528C602.368 626.08 561.92 666.592 512 666.592zM855.264 919.04c-16.256 16.192-37.728 19.616-52.864 19.616-15.712 0-32.544-3.648-48.672-10.56-17.984-7.712-34.496-19.008-49.152-33.632-14.624-14.592-25.92-31.04-33.632-48.928-6.88-16-10.528-32.672-10.528-48.224 0-14.976 3.392-36.192 19.52-52.288 16.256-16.192 37.728-19.616 52.864-19.616 15.712 0 32.544 3.648 48.672 10.56 17.984 7.712 34.528 19.008 49.152 33.632 14.624 14.592 25.92 31.04 33.632 48.928 6.88 16 10.528 32.672 10.528 48.224C874.784 881.728 871.392 902.944 855.264 919.04z" fill="#000000" p-id="109382"></path></svg>