<?xml version="1.0" standalone="no"?><!DOCTYPE svg PUBLIC "-//W3C//DTD SVG 1.1//EN" "http://www.w3.org/Graphics/SVG/1.1/DTD/svg11.dtd"><svg t="1759220221479" class="icon" viewBox="0 0 1024 1024" version="1.1" xmlns="http://www.w3.org/2000/svg" p-id="33498" xmlns:xlink="http://www.w3.org/1999/xlink" width="200" height="200"><path d="M992.256 871.392l-242.56-206.304c-25.088-22.56-51.904-32.928-73.568-31.936a382.528 382.528 0 0 0 91.84-249.184c0-212.064-171.936-384-384-384s-384 171.936-384 384 171.936 384 384 384c95.104 0 182.112-34.592 249.184-91.84-0.992 21.664 9.376 48.48 31.936 73.568l206.304 242.56c35.328 39.232 93.024 42.56 128.224 7.36s31.904-92.896-7.36-128.224zM384 640a256 256 0 1 1 0-512 256 256 0 0 1 0 512z" p-id="33499" fill="#2c2c2c"></path></svg>