<?xml version="1.0" standalone="no"?><!DOCTYPE svg PUBLIC "-//W3C//DTD SVG 1.1//EN" "http://www.w3.org/Graphics/SVG/1.1/DTD/svg11.dtd"><svg t="1759223943736" class="icon" viewBox="0 0 1024 1024" version="1.1" xmlns="http://www.w3.org/2000/svg" p-id="6041" xmlns:xlink="http://www.w3.org/1999/xlink" width="200" height="200"><path d="M392.966682 491.837305l221.271787 0 0 25.887678-221.271787 0 0-25.887678Z" fill="#7F7F7F" p-id="6042"></path><path d="M392.966682 413.046724l221.271787 0 0 25.887678-221.271787 0 0-25.887678Z" fill="#7F7F7F" p-id="6043"></path><path d="M392.966682 570.628906l221.271787 0 0 25.886657-221.271787 0 0-25.886657Z" fill="#7F7F7F" p-id="6044"></path><path d="M512 2.902032c-281.968545 0-510.548474 228.580949-510.548474 510.548474 0 281.968545 228.579929 510.548474 510.548474 510.548474s510.548474-228.579929 510.548474-510.548474C1022.547453 231.481961 793.967524 2.902032 512 2.902032zM873.420348 424.023222l0 43.332524-70.362035 0 0 74.851817 70.362035 0 0 43.335585-70.362035 0 0 74.848756 70.362035 0 0 43.336605-70.362035 0 0 91.264013c0 5.107128-4.138763 9.245891-9.245891 9.245891l-91.268095 0 0 70.366116-43.332524 0 0-70.366116-74.851817 0 0 70.366116-43.332524 0 0-70.366116-74.851817 0 0 70.366116-43.332524 0 0-70.366116-74.851817 0 0 70.366116-43.332524 0 0-70.370198-91.271156 0c-5.107128 0-9.245891-4.138763-9.245891-9.245891l0-91.264013-70.358973 0 0-43.336605 70.358973 0 0-74.848756-70.358973 0 0-43.335585 70.358973 0 0-74.848756-70.358973 0 0-43.335585 70.358973 0 0-74.849776-70.358973 0 0-43.335585 70.358973 0 0-91.264013c0-5.108148 4.137743-9.245891 9.245891-9.245891l91.271156 0 0-70.366116 43.332524 0 0 70.366116 74.851817 0 0-70.366116 43.332524 0 0 70.366116 74.851817 0 0-70.366116 43.332524 0 0 70.366116 74.851817 0 0-70.366116 43.332524 0 0 70.366116 91.268095 0c5.107128 0 9.245891 4.137743 9.245891 9.245891l0 91.268095 70.362035 0 0 43.331503-70.362035 0 0 74.851817L873.420348 424.021181z" fill="#7F7F7F" p-id="6045"></path><path d="M286.927203 721.452945l433.350745 0 0-433.343602-433.350745 0L286.927203 721.452945zM341.423979 342.599996l324.353112 0 0 324.359234-324.353112 0L341.423979 342.599996z" fill="#7F7F7F" p-id="6046"></path></svg>