<?xml version="1.0" standalone="no"?><!DOCTYPE svg PUBLIC "-//W3C//DTD SVG 1.1//EN" "http://www.w3.org/Graphics/SVG/1.1/DTD/svg11.dtd"><svg t="1759222462204" class="icon" viewBox="0 0 1024 1024" version="1.1" xmlns="http://www.w3.org/2000/svg" p-id="127289" xmlns:xlink="http://www.w3.org/1999/xlink" width="200" height="200"><path d="M0 109.70645C0 49.514178 49.73359 0 109.70645 0h804.513963c59.972859 0 109.70645 49.587315 109.706449 109.70645v208.661667c0 302.49725-183.575459 585.53989-468.885365 696.855367a118.482966 118.482966 0 0 1-43.590029 8.776516 118.848654 118.848654 0 0 1-42.566103-8.776516C183.575459 903.908007 0 620.865367 0 318.368117V109.70645z" fill="#000000" p-id="127290"></path><path d="M767.798872 252.324834a54.853225 54.853225 0 0 1 4.60767 77.379616l-292.550532 329.119348a54.853225 54.853225 0 0 1-73.942147 7.460039l-146.275266-109.70645a54.853225 54.853225 0 1 1 65.82387-87.765159l105.903293 79.427469 258.980358-291.38033a54.853225 54.853225 0 0 1 77.525891-4.607671z" fill="#FFFFFF" p-id="127291"></path></svg>