<?xml version="1.0" standalone="no"?><!DOCTYPE svg PUBLIC "-//W3C//DTD SVG 1.1//EN" "http://www.w3.org/Graphics/SVG/1.1/DTD/svg11.dtd"><svg t="1759222056820" class="icon" viewBox="0 0 1024 1024" version="1.1" xmlns="http://www.w3.org/2000/svg" p-id="99512" xmlns:xlink="http://www.w3.org/1999/xlink" width="200" height="200"><path d="M402.285714 877.714286q0 29.714286-21.714286 51.428571t-51.428571 21.714286-51.428571-21.714286-21.714286-51.428571 21.714286-51.428571 51.428571-21.714286 51.428571 21.714286 21.714286 51.428571zm512 0q0 29.714286-21.714286 51.428571t-51.428571 21.714286-51.428571-21.714286-21.714286-51.428571 21.714286-51.428571 51.428571-21.714286 51.428571 21.714286 21.714286 51.428571zm73.142857-621.714286l0 292.571429q0 13.714286-9.428571 24.285714t-23.142857 12.285714l-596.571429 69.714286q7.428571 34.285714 7.428571 40 0 9.142857-13.714286 36.571429l525.714286 0q14.857143 0 25.714286 10.857143t10.857143 25.714286-10.857143 25.714286-25.714286 10.857143l-585.142857 0q-14.857143 0-25.714286-10.857143t-10.857143-25.714286q0-6.285714 4.571429-18t9.142857-20.571429 12.285714-22.857143 8.857143-16.857143l-101.142857-470.285714-116.571429 0q-14.857143 0-25.714286-10.857143t-10.857143-25.714286 10.857143-25.714286 25.714286-10.857143l146.285714 0q9.142857 0 16.285714 3.714286t11.142857 8.857143 7.428571 14 4.571429 14.857143 3.142857 16.857143 2.571429 14.857143l686.285714 0q14.857143 0 25.714286 10.857143t10.857143 25.714286z" p-id="99513" fill="#2c2c2c"></path></svg>