<?xml version="1.0" standalone="no"?><!DOCTYPE svg PUBLIC "-//W3C//DTD SVG 1.1//EN" "http://www.w3.org/Graphics/SVG/1.1/DTD/svg11.dtd"><svg t="1759217959416" class="icon" viewBox="0 0 1024 1024" version="1.1" xmlns="http://www.w3.org/2000/svg" p-id="21512" xmlns:xlink="http://www.w3.org/1999/xlink" width="200" height="200"><path d="M488.009143 231.497143c5.12 0 7.698286-2.998857 8.996571-7.716572 13.275429-71.570286 12.434286-73.289143 87.003429-87.424 5.12-0.859429 8.137143-3.84 8.137143-8.996571 0-5.138286-2.998857-8.155429-8.155429-8.996571-74.130286-14.994286-71.990857-16.713143-86.985143-87.442286-1.28-4.699429-3.858286-7.698286-8.996571-7.698286-5.156571 0-7.716571 2.998857-9.014857 7.698286-14.994286 70.729143-12.434286 72.429714-87.003429 87.442286-4.699429 0.841143-8.137143 3.84-8.137143 8.996571 0 5.138286 3.437714 8.137143 8.137143 8.996571 74.587429 14.994286 73.728 15.853714 87.003429 87.424 1.28 4.717714 3.858286 7.716571 8.996571 7.716572zM280.576 526.354286c8.137143 0 13.714286-5.138286 14.573714-12.854857 15.414857-114.432 19.273143-114.432 137.563429-137.142858 7.716571-1.28 13.293714-6.436571 13.293714-14.573714 0-7.716571-5.577143-13.275429-13.293714-14.573714-118.290286-16.274286-122.569143-20.132571-137.563429-136.704-0.859429-7.716571-6.436571-13.293714-14.573714-13.293714-7.716571 0-13.293714 5.577143-14.153143 13.714285-14.134857 114.852571-20.132571 114.432-137.563428 136.283429-7.716571 1.718857-13.293714 6.857143-13.293715 14.573714 0 8.576 5.577143 13.293714 14.994286 14.573714 116.589714 18.852571 121.728 21.851429 135.862857 136.283429 0.859429 8.576 6.436571 13.714286 14.153143 13.714286z m290.56 474.422857c11.154286 0 19.291429-8.137143 21.430857-19.712 30.427429-234.843429 63.433143-270.427429 295.716572-296.137143 11.995429-1.28 20.150857-10.294857 20.150857-21.430857 0-11.154286-8.155429-19.712-20.150857-21.430857-232.283429-25.709714-265.289143-61.275429-295.716572-296.137143-2.139429-11.574857-10.276571-19.291429-21.430857-19.291429-11.136 0-19.273143 7.716571-20.992 19.291429-30.427429 234.861714-63.853714 270.427429-295.716571 296.137143-12.434286 1.718857-20.571429 10.294857-20.571429 21.430857 0 11.154286 8.137143 20.150857 20.571429 21.430857 231.424 30.427429 263.570286 61.714286 295.716571 296.137143 1.718857 11.574857 9.856 19.712 20.992 19.712z" p-id="21513"></path></svg>