<?xml version="1.0" standalone="no"?><!DOCTYPE svg PUBLIC "-//W3C//DTD SVG 1.1//EN" "http://www.w3.org/Graphics/SVG/1.1/DTD/svg11.dtd"><svg t="1759221063792" class="icon" viewBox="0 0 1024 1024" version="1.1" xmlns="http://www.w3.org/2000/svg" p-id="61295" xmlns:xlink="http://www.w3.org/1999/xlink" width="200" height="200"><path d="M793.6 348.066909a46.545455 46.545455 0 0 1 80.523636-46.778182 418.909091 418.909091 0 1 1-152.669091-152.110545 46.545455 46.545455 0 1 1-46.545454 80.663273 325.818182 325.818182 0 1 0 118.690909 118.225454z" fill="#2c2c2c" p-id="61296"></path><path d="M465.454545 46.545455a46.545455 46.545455 0 0 1 93.09091 0v279.272727a46.545455 46.545455 0 0 1-93.09091 0V46.545455zM465.454545 698.181818a46.545455 46.545455 0 0 1 93.09091 0v279.272727a46.545455 46.545455 0 0 1-93.09091 0v-279.272727zM698.181818 558.545455a46.545455 46.545455 0 0 1 0-93.09091h279.272727a46.545455 46.545455 0 0 1 0 93.09091h-279.272727zM46.545455 558.545455a46.545455 46.545455 0 0 1 0-93.09091h279.272727a46.545455 46.545455 0 0 1 0 93.09091H46.545455z" fill="#2c2c2c" p-id="61297"></path><path d="M512 744.727273a232.727273 232.727273 0 1 1 0-465.454546 232.727273 232.727273 0 0 1 0 465.454546z m0-93.090909a139.636364 139.636364 0 1 0 0-279.272728 139.636364 139.636364 0 0 0 0 279.272728z" fill="#2c2c2c" p-id="61298"></path></svg>