<?xml version="1.0" standalone="no"?><!DOCTYPE svg PUBLIC "-//W3C//DTD SVG 1.1//EN" "http://www.w3.org/Graphics/SVG/1.1/DTD/svg11.dtd"><svg t="1759222303756" class="icon" viewBox="0 0 1024 1024" version="1.1" xmlns="http://www.w3.org/2000/svg" p-id="115001" xmlns:xlink="http://www.w3.org/1999/xlink" width="200" height="200"><path d="M896 256h-213.333333V184.746667A103.253333 103.253333 0 0 0 576 85.333333h-128A103.253333 103.253333 0 0 0 341.333333 184.746667V256H128a42.666667 42.666667 0 0 0 0 85.333333h42.666667v469.333334a128 128 0 0 0 128 128h426.666666a128 128 0 0 0 128-128V341.333333h42.666667a42.666667 42.666667 0 0 0 0-85.333333zM426.666667 682.666667a42.666667 42.666667 0 0 1-85.333334 0v-170.666667a42.666667 42.666667 0 0 1 85.333334 0z m0-497.92c0-6.826667 8.96-14.08 21.333333-14.08h128c12.373333 0 21.333333 7.253333 21.333333 14.08V256h-170.666666zM682.666667 682.666667a42.666667 42.666667 0 0 1-85.333334 0v-170.666667a42.666667 42.666667 0 0 1 85.333334 0z" fill="#2c2c2c" p-id="115002"></path></svg>