<?xml version="1.0" standalone="no"?><!DOCTYPE svg PUBLIC "-//W3C//DTD SVG 1.1//EN" "http://www.w3.org/Graphics/SVG/1.1/DTD/svg11.dtd"><svg t="1759220811671" class="icon" viewBox="0 0 1024 1024" version="1.1" xmlns="http://www.w3.org/2000/svg" p-id="48742" xmlns:xlink="http://www.w3.org/1999/xlink" width="200" height="200"><path d="M976.64 359.04a506.88 506.88 0 0 0-104.64-194.56 66.56 66.56 0 0 0-65.6-19.84 506.56 506.56 0 0 0-194.56 104.64 66.56 66.56 0 0 0 89.92 98.56 359.04 359.04 0 0 1 32-24A462.08 462.08 0 0 1 256 645.12a56 56 0 0 0-9.28 111.68q23.04 1.92 45.76 1.92a576 576 0 0 0 544-395.84 269.76 269.76 0 0 1 9.28 28.8 66.56 66.56 0 0 0 130.88-32.64zM912 832H128V208a48 48 0 0 0-96 0V928h880a48 48 0 0 0 0-96z" fill="#2c2c2c" p-id="48743"></path></svg>