<?xml version="1.0" standalone="no"?><!DOCTYPE svg PUBLIC "-//W3C//DTD SVG 1.1//EN" "http://www.w3.org/Graphics/SVG/1.1/DTD/svg11.dtd"><svg t="1759220849216" class="icon" viewBox="0 0 1024 1024" version="1.1" xmlns="http://www.w3.org/2000/svg" p-id="52224" xmlns:xlink="http://www.w3.org/1999/xlink" width="200" height="200"><path d="M712.760889 571.335111l-91.022222-98.531555L547.271111 537.998222a54.044444 54.044444 0 0 1-73.784889-2.446222L252.814222 314.88l60.302222-60.302222L513.137778 454.428444l75.377778-65.991111a54.044444 54.044444 0 0 1 75.320888 4.039111l109.283556 118.442667 40.049778-40.049778c22.300444-22.300444 43.064889-14.791111 46.592 16.611556l19.342222 170.837333c1.820444 16.042667-9.557333 26.965333-25.258667 25.201778l-171.121777-18.944c-31.402667-3.527111-38.968889-24.291556-16.782223-46.478222l46.819556-46.819556zM199.111111 768h682.666667a28.444444 28.444444 0 0 1 28.444444 28.444444v28.444445a28.444444 28.444444 0 0 1-28.444444 28.444444h-739.555556a28.444444 28.444444 0 0 1-28.444444-28.444444v-625.777778a28.444444 28.444444 0 0 1 28.444444-28.444444H170.666667a28.444444 28.444444 0 0 1 28.444444 28.444444v568.888889z" fill="#1F1F1F" p-id="52225"></path></svg>