<?xml version="1.0" standalone="no"?><!DOCTYPE svg PUBLIC "-//W3C//DTD SVG 1.1//EN" "http://www.w3.org/Graphics/SVG/1.1/DTD/svg11.dtd"><svg t="1759222036853" class="icon" viewBox="0 0 1024 1024" version="1.1" xmlns="http://www.w3.org/2000/svg" p-id="97625" xmlns:xlink="http://www.w3.org/1999/xlink" width="200" height="200"><path d="M1024 576l-128-256-192 0L704 192c0-35.2-28.8-64-64-64L64 128C28.8 128 0 156.8 0 192l0 512 64 64 81.152 0C134.272 786.816 128 808.672 128 832c0 70.688 57.312 128 128 128s128-57.312 128-128c0-23.328-6.272-45.152-17.152-64l354.336 0c-10.912 18.848-17.152 40.672-17.152 64 0 70.688 57.312 128 128 128s128-57.312 128-128c0-23.328-6.272-45.152-17.152-64L1024 768 1024 576zM704 576l0-160 132.672 0 80 160L704 576z" fill="#2c2c2c" p-id="97626"></path></svg>