<?xml version="1.0" standalone="no"?><!DOCTYPE svg PUBLIC "-//W3C//DTD SVG 1.1//EN" "http://www.w3.org/Graphics/SVG/1.1/DTD/svg11.dtd"><svg t="1759221558021" class="icon" viewBox="0 0 1024 1024" version="1.1" xmlns="http://www.w3.org/2000/svg" p-id="75780" xmlns:xlink="http://www.w3.org/1999/xlink" width="200" height="200"><path d="M511.829333 810.666667c-10.709333 0-22.997333-4.565333-30.634666-12.245334l-160.981334-148.693333H168.448c-26.026667 0-45.994667-19.925333-45.994667-45.994667V376.874667c0-26.069333 19.925333-45.994667 45.994667-45.994667h151.765333l160.981334-148.693333c13.781333-12.288 32.170667-15.36 49.066666-7.68 16.810667 7.68 27.562667 24.533333 27.562667 41.386666v548.821334c0 18.346667-10.752 35.242667-27.605333 41.386666-6.101333 4.565333-12.245333 4.565333-18.346667 4.565334z m-297.386666-251.392H337.066667c12.288 0 23.04 4.608 30.677333 12.288l96.554667 88.874666V320.128L367.786667 409.045333c-9.216 7.68-19.925333 12.288-30.677334 12.288H214.442667v137.941334zM683.52 640.512c-4.608 0-9.173333 0-13.781333-1.536a46.549333 46.549333 0 0 1-30.677334-58.24 257.962667 257.962667 0 0 0-7.68-176.298667c-9.173333-22.997333 1.536-50.602667 24.533334-59.776 23.04-9.216 50.602667 1.536 59.818666 24.533334 32.170667 75.093333 35.242667 160.938667 10.709334 239.104-4.608 19.968-22.997333 32.213333-42.922667 32.213333zM807.68 763.136c-7.68 0-13.781333-1.536-21.461333-4.608a46.208 46.208 0 0 1-19.925334-61.312 430.677333 430.677333 0 0 0-10.709333-409.301333c-12.288-21.461333-6.144-50.56 16.853333-62.848 21.461333-12.245333 50.602667-6.101333 62.848 16.896 88.917333 151.722667 95.061333 341.845333 13.781334 498.176-7.68 13.824-24.490667 23.04-41.386667 23.04z" fill="#2c2c2c" p-id="75781"></path></svg>