<?xml version="1.0" standalone="no"?><!DOCTYPE svg PUBLIC "-//W3C//DTD SVG 1.1//EN" "http://www.w3.org/Graphics/SVG/1.1/DTD/svg11.dtd"><svg t="1759223878829" class="icon" viewBox="0 0 1024 1024" version="1.1" xmlns="http://www.w3.org/2000/svg" p-id="5013" xmlns:xlink="http://www.w3.org/1999/xlink" width="200" height="200"><path d="M512 85.333333a426.666667 426.666667 0 1 0 426.666667 426.666667A426.666667 426.666667 0 0 0 512 85.333333z m-149.333333 533.333334h-85.333334v-85.333334h85.333334z m0-128h-85.333334v-85.333334h85.333334z m128 256h-85.333334v-85.333334h85.333334z m0-128h-85.333334v-85.333334h85.333334z m0-128h-85.333334v-85.333334h85.333334z m0-128h-85.333334v-85.333334h85.333334z m128 384h-85.333334v-85.333334h85.333334z m0-128h-85.333334v-85.333334h85.333334z m0-128h-85.333334v-85.333334h85.333334z m0-128h-85.333334v-85.333334h85.333334z m128 256h-85.333334v-85.333334h85.333334z m0-128h-85.333334v-85.333334h85.333334z" p-id="5014"></path></svg>