<?xml version="1.0" standalone="no"?><!DOCTYPE svg PUBLIC "-//W3C//DTD SVG 1.1//EN" "http://www.w3.org/Graphics/SVG/1.1/DTD/svg11.dtd"><svg t="1759218125375" class="icon" viewBox="0 0 1024 1024" version="1.1" xmlns="http://www.w3.org/2000/svg" p-id="22555" xmlns:xlink="http://www.w3.org/1999/xlink" width="200" height="200"><path d="M895.146667 503.552a42.453333 42.453333 0 0 0-31.488-32.896l-292.693334-73.216 108.245334-252.629333a42.581333 42.581333 0 0 0-13.525334-50.858667 42.496 42.496 0 0 0-52.650666 1.024l-469.333334 384a42.666667 42.666667 0 0 0 16.64 74.410667l286.677334 71.722666-142.72 249.770667A42.709333 42.709333 0 0 0 341.333333 938.666667a42.453333 42.453333 0 0 0 25.6-8.533334l512-384a42.666667 42.666667 0 0 0 16.213334-42.581333z" p-id="22556" fill="#2c2c2c"></path></svg>